<svg width="319" height="206" viewBox="0 0 319 206" fill="none" xmlns="http://www.w3.org/2000/svg">
<g clip-path="url(#clip0_2_2)">
<path d="M24.9463 0H295.88V205.846H24.9463V0Z" fill="white"/>
<path d="M24.9463 0H295.88V203.2H24.9463V0Z" fill="white"/>
<path d="M24.9463 0H295.88V203.2H24.9463V0Z" fill="white"/>
<path d="M112.103 99.0075C112.269 96.1249 112.538 93.225 113.059 90.3963C112.144 90.2098 111.209 90.0175 110.265 89.8252C109.286 92.5578 108.738 95.4403 108.411 98.3767C109.64 98.5998 110.871 98.8075 112.103 99.0075V99.0075ZM111.994 101.202C110.73 101 109.467 100.786 108.207 100.559C108.002 103.23 107.934 105.924 107.863 108.574C109.48 108.895 110.782 109.201 111.677 109.488C111.719 109.501 111.765 109.515 111.809 109.53C111.686 107.203 111.865 104.807 111.934 102.751C111.953 102.236 111.973 101.719 111.994 101.202V101.202ZM97.6291 98.1556C97.031 100.988 96.4291 103.821 95.8195 106.651C99.5771 107.171 102.948 107.682 105.692 108.169C105.773 105.513 105.856 102.825 106.071 100.159C103.231 99.6055 100.41 98.9632 97.6291 98.1556V98.1556ZM106.14 88.9868C105.288 91.8136 104.481 94.6519 103.163 97.3075C104.2 97.5421 105.24 97.7671 106.284 97.9729C106.619 95.0346 107.163 92.1443 108.107 89.3867C107.457 89.2541 106.8 89.1214 106.14 88.9868V88.9868ZM93.4235 86.458C92.3236 92.9635 90.3583 99.3055 89.016 105.749C90.5967 105.951 92.1428 106.151 93.637 106.353C94.3485 103.063 95.0503 99.7709 95.7426 96.4787C95.8638 95.9095 96.5522 95.5442 97.0926 95.7115C98.3963 96.1134 99.7097 96.4672 101.029 96.7999C101.05 96.6941 101.081 96.5883 101.137 96.4806C102.425 93.9654 103.188 91.252 103.988 88.5522C100.465 87.8445 96.8868 87.133 93.4235 86.458V86.458ZM85.6585 84.9773C85.3873 91.6828 84.5335 98.4267 83.1971 105.03C84.4278 105.178 85.6469 105.328 86.8488 105.478C88.1987 98.9863 90.1583 92.5962 91.2794 86.0427C89.3448 85.6715 87.4642 85.3139 85.6585 84.9773ZM77.2896 83.4793C77.5435 86.5253 77.405 89.656 77.0473 92.7866C78.9684 92.977 80.8856 93.1923 82.7971 93.4769C83.1317 90.5117 83.3644 87.5407 83.4759 84.5716C81.2356 84.162 79.153 83.7928 77.2896 83.4793ZM75.0378 83.1101C73.2687 82.8294 71.7783 82.6197 70.6572 82.4986C70.4246 82.4755 70.188 82.4505 69.9477 82.4275C69.5073 85.6119 69.4092 88.8695 69.3842 92.0828C71.1438 92.252 72.9033 92.402 74.6628 92.5616C75.0167 89.4617 75.2974 86.2446 75.0378 83.1101ZM76.7685 94.9461C76.3243 98.0402 75.7128 101.113 75.0936 104.082C77.0743 104.307 79.053 104.538 81.0125 104.771C81.6279 101.75 82.1356 98.7017 82.5336 95.6403C80.6202 95.3499 78.6953 95.1346 76.7685 94.9461ZM68.2804 94.1692C67.6901 94.1096 67.1805 93.7096 67.1824 93.0731C67.1978 89.4675 67.2978 85.8158 67.7747 82.2313C65.8729 82.0755 63.8095 81.9448 61.6865 81.8371C61.4904 88.7291 60.7212 95.6018 60.5462 102.492C64.4768 102.905 68.6573 103.357 72.8821 103.832C73.4706 100.811 73.9975 97.7787 74.3975 94.7269C72.3572 94.5461 70.3169 94.3769 68.2804 94.1692V94.1692ZM58.9655 91.3963C59.1905 88.1772 59.4058 84.9562 59.4943 81.7313C58.0905 81.6698 56.6771 81.614 55.2772 81.5679C55.1657 84.6427 55.0426 87.7176 54.9484 90.7924C56.2868 91.0059 57.6252 91.204 58.9655 91.3963ZM54.8868 92.9904C54.8118 95.9576 54.7734 98.9248 54.8118 101.894C55.9598 102.011 57.1425 102.134 58.3559 102.261C58.4347 99.3632 58.6193 96.4691 58.8174 93.575C57.5059 93.3866 56.1964 93.1943 54.8868 92.9904ZM47.0333 81.3583C45.8565 81.3371 44.7546 81.3198 43.7412 81.3063C43.7316 82.2525 43.7277 83.1986 43.7431 84.1466C43.7643 85.3235 43.4547 88.1291 44.2315 89.1271C44.2796 89.1906 44.32 89.2541 44.3527 89.3194C45.4623 89.479 46.5757 89.5963 47.6948 89.5983C47.7448 86.8234 47.5872 84.0678 47.0333 81.3583H47.0333ZM41.5951 85.7408C41.5259 84.2543 41.5317 82.7678 41.5471 81.2813C39.0952 81.2583 37.5703 81.2583 37.5703 81.2583V88.2503C39.0145 88.3906 40.4529 88.6541 41.8932 88.9137C41.6509 87.8714 41.6413 86.733 41.5951 85.7408V85.7408ZM37.5703 90.3579V100.18C37.5703 100.18 41.1682 100.521 46.7891 101.08C47.0968 97.996 47.4545 94.8884 47.6179 91.7924C44.27 91.7559 40.9086 90.6578 37.5703 90.3579ZM53.085 81.4986C51.7793 81.4621 50.5005 81.4294 49.2736 81.4025C50.4851 87.9291 49.5832 94.6577 48.9506 101.296C50.1101 101.413 51.3331 101.536 52.6138 101.667C52.5331 94.9423 52.8427 88.2214 53.085 81.4986V81.4986ZM115.205 90.8386C114.521 94.5519 114.303 98.3921 114.151 102.142C114.059 104.444 113.734 107.444 113.984 110.153C115.661 110.593 117.524 111.003 119.482 111.382C118.99 104.701 117.261 98.0363 117.903 91.3943C117.028 91.2136 116.124 91.0271 115.205 90.8386V90.8386ZM121.688 111.79C125.178 112.405 128.837 112.928 132.164 113.347C131.037 110.488 129.574 107.73 128.614 104.809C127.351 100.969 126.685 96.9729 125.782 93.0366C124.097 92.6827 122.163 92.2789 120.047 91.8405C119.417 98.4498 121.216 105.124 121.688 111.79V111.79ZM131.628 106.634C132.585 108.995 133.693 111.274 134.554 113.639C140.018 114.286 144.09 114.622 144.09 114.622L138.791 105.248C136.36 105.499 133.941 105.79 131.628 106.634V106.634ZM137.627 103.192L132.712 94.498C132.712 94.498 130.997 94.1327 128.133 93.5308C128.941 97.246 129.61 101 130.854 104.588C133.049 103.755 135.329 103.438 137.627 103.192ZM226.229 115.187C222.962 113.745 218.285 112.249 213.033 110.801C212.606 112.128 212.151 113.443 211.535 114.697C217.406 115.839 223.246 117.072 229.052 118.583C229.475 117.968 229.881 117.332 230.263 116.68C228.754 116.197 227.394 115.701 226.229 115.187V115.187ZM200.12 107.559C199.438 109.084 198.707 110.586 197.874 112.038C200.044 112.486 202.215 112.936 204.391 113.341C206.043 113.649 207.691 113.961 209.339 114.274C209.36 114.182 209.391 114.089 209.441 113.995C210.076 112.797 210.518 111.52 210.928 110.23C207.447 109.305 203.77 108.405 200.12 107.559V107.559ZM197.949 107.061C193.267 105.998 188.708 105.032 184.75 104.226C183.348 105.948 181.992 107.705 180.648 109.472C185.702 109.682 190.656 110.574 195.598 111.572C196.476 110.113 197.242 108.601 197.949 107.061V107.061ZM218.65 124.664C213.391 123.487 207.811 120.964 202.338 121.685C202.222 121.701 202.118 121.693 202.022 121.679C201.655 122.853 201.299 124.031 200.953 125.212L238.111 134.456C238.673 132.854 239.186 131.235 239.688 129.61C232.694 127.87 225.683 126.239 218.65 124.664V124.664ZM218.623 122.414C225.871 124.081 233.117 125.714 240.334 127.51C241.13 124.916 241.938 122.328 242.905 119.799C239.107 119.041 235.521 118.214 232.417 117.33C231.821 118.391 231.159 119.414 230.456 120.387C230.165 120.789 229.727 121.026 229.217 120.891C221.121 118.747 212.955 117.099 204.713 115.624C204.534 115.591 204.353 115.557 204.172 115.524C204.165 115.547 204.161 115.57 204.151 115.597C203.641 116.868 203.184 118.155 202.747 119.451C208.099 118.897 213.503 121.235 218.623 122.414H218.623ZM262.593 133.937C261.868 135.948 261.252 138.004 260.708 140.077L275.88 143.852L278.475 136.56C273.165 135.787 267.864 134.938 262.593 133.937ZM256.17 132.629C256.151 132.658 256.139 132.687 256.118 132.714C254.945 134.275 254.306 136.323 253.795 138.358L258.577 139.548C259.11 137.513 259.712 135.494 260.412 133.512C258.995 133.231 257.581 132.935 256.17 132.629ZM248.699 130.858C248.682 130.879 248.67 130.902 248.651 130.923C247.366 132.341 246.614 134.394 246.038 136.429L251.672 137.831C252.182 135.812 252.795 133.764 253.868 132.116C252.139 131.719 250.416 131.298 248.699 130.858H248.699ZM246.401 130.248C244.978 129.864 243.557 129.466 242.144 129.043C241.536 131.033 240.924 133.023 240.242 134.987L243.934 135.904C244.517 133.9 245.249 131.875 246.401 130.248V130.248ZM275.875 124.699C274.636 127.533 274.221 130.635 273.223 133.56C275.221 133.875 277.219 134.179 279.219 134.469L282.449 125.395C282.449 125.395 279.911 125.154 275.875 124.699ZM267.617 123.704C267.598 123.852 267.544 124.006 267.439 124.16C265.796 126.585 264.483 129.173 263.391 131.858C265.929 132.339 268.475 132.787 271.027 133.206C272.05 130.319 272.523 127.285 273.627 124.439C271.813 124.227 269.787 123.981 267.617 123.704V123.704ZM244.061 124.664C243.868 124.601 243.72 124.501 243.605 124.381C243.326 125.233 243.053 126.087 242.788 126.945C248.845 128.754 254.993 130.204 261.189 131.431C261.55 130.519 261.941 129.62 262.354 128.733C256.118 128.7 249.909 126.606 244.061 124.664V124.664ZM244.643 122.549C250.576 124.518 256.897 126.7 263.221 126.535C263.3 126.533 263.375 126.539 263.444 126.55C264.019 125.477 264.641 124.425 265.316 123.404C259.033 122.574 251.818 121.503 245.084 120.224C244.788 120.974 244.513 121.731 244.245 122.493C244.368 122.489 244.501 122.501 244.643 122.549V122.549ZM201.997 115.111C194.377 113.614 186.833 111.713 179.018 111.624C177.31 113.905 175.622 116.203 173.918 118.487L198.822 124.683C199.765 121.453 200.747 118.239 201.997 115.111ZM182.341 103.74C176.997 102.671 173.129 101.961 172.208 101.794C166.945 105.524 161.757 109.355 156.657 113.303C157.23 114.02 157.563 114.418 157.563 114.418L171.631 117.918C175.187 113.18 178.643 108.365 182.341 103.74ZM170.999 99.9709C170.716 99.4632 170.378 98.8575 169.993 98.1671C168.533 99.0478 167.001 99.8228 165.486 100.529C162.87 101.748 159.834 103.13 156.882 103.063C153.975 102.996 151.771 100.4 150.142 98.2709C149.898 97.9537 149.667 97.6267 149.436 97.2979C148.421 97.9479 147.396 98.5786 146.344 99.1613C149.688 104.251 153.128 108.811 155.303 111.593C160.451 107.607 165.687 103.738 170.999 99.9709V99.9709ZM156.882 100.869C159.488 101.105 162.657 99.467 164.924 98.3729C166.257 97.7306 167.626 97.0422 168.928 96.2576C167.695 94.0538 166.174 91.3328 164.511 88.3656C161.934 89.8021 159.315 91.177 156.728 92.652C154.846 93.725 153.044 94.9326 151.238 96.1249C152.642 98.2075 154.544 100.655 156.882 100.869V100.869ZM154.438 82.1467C153.357 82.864 152.28 83.5812 151.2 84.2985C151.927 86.6426 153.748 88.5541 155.315 90.3771C155.43 90.5117 155.507 90.654 155.549 90.7982C155.574 90.7848 155.598 90.7694 155.621 90.7559C156.746 90.1137 157.882 89.4944 159.019 88.8791C157.553 86.5927 155.861 84.4581 154.438 82.1467V82.1467ZM144.056 89.0483C143.152 89.6502 142.246 90.2502 141.342 90.854C142.51 93.0193 143.813 95.2057 145.16 97.3287C146.211 96.7576 147.234 96.1345 148.246 95.4884C146.884 93.3135 145.638 91.0578 144.056 89.0483ZM150.046 94.3115C151.271 93.5 152.49 92.677 153.734 91.8962C152.078 89.9733 150.232 87.9599 149.311 85.5542C148.165 86.3157 147.019 87.0792 145.871 87.8426C147.421 89.8867 148.657 92.1558 150.046 94.3115V94.3115ZM160.953 87.833C161.788 87.383 162.62 86.9311 163.449 86.4734C162.084 84.0428 160.651 81.4929 159.222 78.9641C158.24 79.6218 157.253 80.2737 156.267 80.9294C157.717 83.3043 159.455 85.4869 160.953 87.833V87.833ZM138.291 84.3581C138.86 85.8273 139.548 87.3522 140.325 88.9022C146.258 84.9408 152.211 81.0141 158.144 77.0527C157.588 76.0739 157.04 75.1047 156.498 74.149C151.004 78.268 143.962 80.391 138.291 84.3581ZM150.255 75.1393C148.181 71.5683 145.986 67.8531 144.881 63.8418C143.246 64.811 141.621 65.7974 140 66.7878C140.946 68.2377 141.921 69.6607 142.987 71.0049C143.331 71.4395 143.473 72.1414 142.987 72.5568C140.891 74.3528 138.518 75.6989 136.081 76.9469C136.445 77.9469 136.72 78.8642 136.875 79.6641C137.037 80.4987 137.271 81.3756 137.558 82.2794C141.61 79.6564 146.302 77.82 150.557 75.4835C150.444 75.3989 150.342 75.2874 150.255 75.1393V75.1393ZM146.979 63.2033C148.031 67.0512 150.159 70.6068 152.152 74.0317C152.24 74.1855 152.286 74.3355 152.302 74.4797C153.4 73.8125 154.457 73.0971 155.451 72.3068C152.925 67.8685 150.657 63.9283 149.138 61.3842C148.334 61.8322 147.534 62.2899 146.736 62.7514C146.842 62.8687 146.929 63.0168 146.979 63.2033ZM147.998 59.5074C147.852 59.2766 147.725 59.0785 147.615 58.9151C145.894 56.3344 143.721 53.4057 140.814 48.754C138.775 50.0193 136.723 51.2654 134.604 52.3942C134.302 52.5558 133.995 52.7077 133.689 52.8654C133.512 53.0384 133.283 53.1596 133.035 53.2019C132.256 53.598 131.476 53.9845 130.693 54.373C134.041 57.3459 136.41 61.1611 138.814 64.9417C141.85 63.086 144.892 61.2419 147.998 59.5074ZM140.7 71.5953C136.697 66.2167 133.808 59.79 128.605 55.4499C128.595 55.4422 128.589 55.4325 128.58 55.4248C127.443 55.994 126.31 56.5729 125.201 57.1863C129.441 63.7475 133.177 70.0915 135.266 74.9124C137.162 73.9413 139.021 72.899 140.7 71.5953V71.5953ZM133.039 50.7347C135.302 49.5463 137.487 48.2233 139.658 46.8791C138.918 45.6561 138.135 44.3311 137.3 42.8697C135.091 44.2292 132.885 45.5945 130.67 46.9445C131.376 48.2579 132.052 49.6232 133.039 50.7347ZM128.793 48.081C126.501 49.4617 124.197 50.8193 121.859 52.1173C122.584 53.198 123.305 54.2845 124.014 55.3652C126.305 54.0922 128.674 52.948 131.031 51.7635C130.143 50.6405 129.478 49.3424 128.793 48.081V48.081ZM118.111 41.0871C117.349 41.8543 116.619 42.6466 115.874 43.4254C117.434 45.6407 119.036 47.9502 120.624 50.2924C125.926 47.3579 131.058 44.1311 136.223 40.9582C134.556 37.9641 132.708 34.4816 130.653 30.3664C129.516 28.0973 128.135 25.7993 126.603 23.5206C123.205 25.3474 119.751 27.0762 116.519 29.1895C117.357 30.4433 118.159 31.7125 118.892 32.9913C119.757 34.4989 120.468 36.3873 120.257 38.1641C120.093 39.5256 119.02 40.1736 118.111 41.0871ZM115.201 19.563C113.859 20.3669 112.486 21.1226 111.069 21.7995C112.496 23.5956 113.923 25.4647 115.276 27.38C116.719 26.43 118.207 25.5608 119.713 24.7263C117.957 23.2629 116.565 21.4014 115.201 19.563V19.563ZM121.382 23.286C121.522 23.3898 121.626 23.5129 121.701 23.6436C122.914 22.9956 124.134 22.3552 125.347 21.7053C123.934 19.7188 122.422 17.7535 120.857 15.844C119.607 16.7228 118.344 17.5862 117.061 18.4112C118.338 20.1534 119.663 22.0014 121.382 23.286ZM119.453 14.1594C116.194 10.3173 112.798 6.74056 109.738 3.69647C106.192 5.79061 102.677 7.93281 99.2925 10.2616C103.213 12.9845 106.608 16.3843 109.652 20.0534C113.121 18.4304 116.322 16.3517 119.453 14.1594V14.1594ZM116.278 39.8102C117.567 38.4737 118.37 38.2506 117.913 36.2565C117.476 34.3431 116.109 32.7259 114.994 31.1664C109.83 23.9417 104.958 16.5863 97.3887 11.6019C96.1657 12.4845 94.9619 13.3941 93.785 14.3421C97.7137 19.1573 101.542 23.8628 102.119 24.634C102.627 25.3109 108.111 32.4874 114.59 41.6101C115.153 41.0121 115.705 40.4025 116.278 39.8102ZM97.4675 5.82714C96.8656 5.11948 96.1772 4.37913 95.6984 3.55417C93.3408 5.03679 91.0044 6.56942 88.641 8.04819C89.7814 9.44236 91.0775 11.0269 92.4024 12.648C94.5773 10.8981 96.8387 9.27314 99.154 7.71936C98.5579 7.11554 98.006 6.45788 97.4675 5.82714V5.82714ZM97.681 2.58114C97.8195 2.78882 97.9714 2.98881 98.1252 3.18688C98.5156 3.68878 98.9271 4.17337 99.3444 4.6522C99.8809 5.26755 100.427 5.91175 101.025 6.4848C103.356 4.97718 105.731 3.52917 108.125 2.11001C106.792 0.813913 105.548 -0.361033 104.435 -1.38983C102.087 -0.266807 99.8136 1.02929 97.5695 2.39653C97.6156 2.47153 97.6598 2.55037 97.681 2.58114ZM102.696 -2.98014C100.546 -4.92236 99.2059 -6.04539 99.2059 -6.04539L84.6162 3.12919C84.6162 3.12919 85.6623 4.40798 87.2449 6.34058C92.3697 3.15803 97.3579 -0.309112 102.696 -2.98014ZM251.409 41.164C253.305 41.5447 255.055 41.8966 256.943 42.2755C256.943 41.489 256.939 40.8659 256.943 40.2429C256.962 36.9815 256.493 33.622 257.127 30.4837C257.945 26.4435 256.504 23.7571 253.389 21.2072C250.474 27.7357 251.822 34.4027 251.409 41.164ZM224.148 40.8967C226.437 46.5618 228.675 52.1019 231.011 57.8805C233.204 57.1382 235.573 56.3383 238.013 55.5114C237.059 49.1386 236.142 42.9947 235.202 36.7007C231.481 38.1141 227.696 39.5506 224.148 40.8967V40.8967ZM215.156 12.0865C214.814 12.3115 214.697 13.2499 214.828 13.7691C216.091 18.7419 217.414 23.7013 218.76 28.6511C218.964 29.403 219.373 30.0972 219.772 31.0106C221.881 29.5991 223.819 28.4126 225.608 27.0319C226.096 26.6531 226.498 25.5858 226.327 25.0166C224.694 19.5688 222.931 14.1633 221.137 8.52317C219.15 9.68273 217.102 10.8058 215.156 12.0865V12.0865ZM206.309 5.09448C204.157 6.2752 201.924 7.35207 199.936 8.76931C198.99 9.44236 198.009 10.775 197.955 11.8576C197.819 14.519 197.882 17.2824 198.463 19.8707C199.297 23.5782 199.661 23.5879 203.19 22.1091C203.634 21.9226 204.091 21.7726 204.468 21.6341C209.851 35.0777 215.135 48.279 220.433 61.5053C223.26 60.5208 225.85 59.6189 228.342 58.7497C227.36 52.55 224.752 47.3156 221.821 42.1735C220.55 39.9429 221.052 39.241 223.433 38.4026C226.831 37.2065 230.213 35.9584 233.557 34.6162C234.188 34.3643 235.055 33.5662 235.044 33.0355C234.975 29.9395 234.677 26.8473 234.442 23.5532C229.036 27.6838 223.914 31.5971 218.706 35.5758C218.345 34.972 218.11 34.7162 218.025 34.4162C215.989 27.3473 213.997 20.263 211.926 13.2037C211.378 11.3307 212.389 10.4462 213.768 9.69043C218.364 7.16939 222.969 4.66373 227.567 2.14654C228.521 1.62541 229.458 1.07352 230.692 0.371625C228.788 -0.884086 227.231 -1.79943 225.804 -2.88592C224.244 -4.0724 222.929 -4.11278 221.156 -3.07245C216.285 -0.216809 211.262 2.37922 206.309 5.09448ZM240.528 16.3305C243.48 17.2555 243.838 16.9651 245.903 12.8749C244.032 11.1846 242.245 9.5712 240.172 7.69821C239.742 10.2558 239.257 12.3249 239.124 14.4152C239.084 15.044 239.896 16.1324 240.528 16.3305ZM245.474 29.5818C246.72 29.7183 247.82 29.8395 248.655 29.9318C249.661 26.355 250.568 23.2417 251.385 20.1073C251.522 19.5823 251.457 18.8054 251.149 18.3977C250.176 17.1132 249.045 15.9478 247.78 14.5171C245.009 19.5573 245.518 24.482 245.474 29.5818ZM199.738 6.28674C207.13 2.30231 214.024 -1.41483 221.289 -5.33003C218.32 -7.57608 215.679 -8.88756 212.391 -7.22033C211.376 -6.70497 210.224 -6.46844 209.16 -6.03769C203.826 -3.87626 201.384 0.51008 199.738 6.28674V6.28674ZM240.401 38.6564C240.867 40.2852 241.982 41.2678 243.482 40.6351V19.0054C241.855 18.8631 240.405 18.7362 238.678 18.5862C238.678 22.9071 238.476 26.9781 238.749 31.0164C238.924 33.5912 239.686 36.1527 240.401 38.6564ZM226.842 75.9047C232.434 74.499 237.628 73.1933 243.017 71.8395C241.413 66.8013 239.917 62.0976 238.407 57.3575C232.692 59.3901 227.06 61.3919 221.454 63.3841C223.387 67.8743 225.115 71.8914 226.842 75.9047V75.9047ZM113.969 1.87156C114.976 2.12154 116.313 2.91189 116.938 2.53306C121.315 -0.136044 125.545 -3.0436 129.824 -5.87616C129.82 -6.1973 129.816 -6.51652 129.814 -6.83766C128.641 -7.03573 127.112 -7.80492 126.357 -7.33379C122.136 -4.70122 118.101 -1.76866 114.001 1.06005C113.992 1.3312 113.98 1.60234 113.969 1.87156H113.969ZM166.797 1.70233C165.811 1.39658 164.828 1.07352 163.845 0.761992C163.672 2.07539 163.489 3.36956 163.27 4.65797C162.024 11.9942 160.974 19.3784 159.334 26.63C158.957 28.303 159.017 29.8453 159.29 31.3298C162.09 21.5437 163.326 11.3077 166.797 1.70233H166.797ZM168.905 2.31C165.045 13.0076 163.957 24.484 160.38 35.2489C160.761 36.3988 161.149 37.5507 161.426 38.7372C167.793 27.5242 170.61 15.4536 172.137 2.96381C171.047 2.82151 169.972 2.58883 168.905 2.31V2.31ZM172.387 0.781222C172.508 -0.309112 172.624 -1.40329 172.728 -2.50132C169.653 -2.77054 167.085 -2.99553 164.37 -3.23398C164.288 -2.63208 164.211 -2.03788 164.134 -1.4456C166.86 -0.589869 169.57 0.415854 172.387 0.781222V0.781222ZM161.928 -11.8836C159.105 -10.949 156.321 -10.026 153.542 -9.10486C153.615 -8.9991 153.673 -8.87218 153.705 -8.71834C154.78 -3.71088 156.824 1.04275 158.021 6.02329C158.134 6.49442 157.947 7.01363 157.517 7.26169C155.298 8.53471 153.19 10.125 150.936 11.3865C151.617 12.4288 152.278 13.4826 152.896 14.5594C154.682 17.6785 156.088 21.0149 157.701 24.3417C160.092 14.7421 162.613 -5.97231 161.928 -11.8836V-11.8836ZM146.948 5.49254C147.859 6.85979 148.8 8.20972 149.723 9.56928C151.782 8.4501 153.713 7.00401 155.692 5.79253C155.244 4.06184 154.705 2.35423 154.153 0.652381C151.552 1.96578 149.221 3.68301 146.948 5.49254ZM153.467 -1.46291C152.757 -3.66473 152.075 -5.87232 151.59 -8.13375C151.565 -8.24528 151.563 -8.35105 151.569 -8.45297C147.796 -7.20303 144.019 -5.95308 140.156 -4.6743C142.21 -1.59944 143.994 1.06775 145.729 3.66763C148.158 1.72925 150.655 -0.109122 153.467 -1.46291H153.467ZM156.874 -13.022C162.459 -14.6758 162.457 -14.6873 161.261 -20.6236C161.232 -20.7659 161.109 -20.8889 160.97 -21.1197H149.606C150.732 -17.9852 151.775 -15.0834 152.882 -12.0009C154.207 -12.3374 155.555 -12.6316 156.874 -13.022V-13.022ZM139.948 -7.0338C143.029 -8.14721 146.092 -9.31639 149.098 -10.6183C149.588 -10.8317 150.157 -11.924 150.007 -12.3874C149.196 -14.8681 148.246 -17.3141 147.154 -19.6871C146.904 -20.2255 145.842 -20.8005 145.254 -20.7101C139.866 -19.889 134.497 -18.9236 129.193 -18.0121C132.376 -14.2315 135.27 -10.7413 138.252 -7.32802C138.552 -6.98188 139.466 -6.85881 139.948 -7.0338ZM177.337 18.8938C177.598 14.7729 177.856 10.7096 178.15 6.10213C177.064 6.01752 176.172 5.94829 175.252 5.87714C174.802 8.43279 174.414 10.6865 174.006 12.9384C173.524 15.6094 174.602 17.6189 177.337 18.8938ZM188.884 -17.2333C188.892 -17.691 188.298 -18.4775 187.86 -18.5756C184.769 -19.2717 181.648 -19.8274 178.212 -20.4889C177.818 -16.2776 177.458 -12.4316 177.131 -8.95294C181.023 -8.01837 184.479 -7.18764 188.477 -6.22615C188.644 -10.2375 188.831 -13.7335 188.884 -17.2333V-17.2333ZM165.741 -5.6454C167.966 -5.29157 170.22 -5.12043 172.797 -4.85313V-21.062H164.084C164.288 -16.2603 164.455 -11.6144 164.724 -6.97419C164.751 -6.49537 165.328 -5.71079 165.741 -5.6454V-5.6454ZM176.941 -6.67805C176.612 -3.86087 176.379 -1.34753 176.012 1.13313C176.452 1.51965 176.46 2.30423 176.041 2.75805C176.291 3.43879 176.935 3.73301 177.927 3.7657C180.706 3.85608 183.487 3.96954 186.265 3.94646C186.715 3.94262 187.49 3.33687 187.552 2.92535C187.892 0.686995 188.054 -1.57828 188.273 -3.7878C184.433 -4.7666 180.829 -5.68579 176.941 -6.67805V-6.67805ZM175.931 39.1737C176.725 39.2948 178.039 38.6968 178.471 38.0199C180.36 35.0566 182.014 31.9413 183.785 28.8242C179.958 25.5339 176.379 22.4552 172.966 19.5227C170.82 25.2666 168.633 31.1164 166.349 37.2295C169.541 37.9045 172.714 38.6852 175.931 39.1737V39.1737ZM212.147 -10.6356C209.926 -11.4317 207.705 -12.2297 205.472 -13.0297C200.386 -10.7106 195.403 -8.17413 190.504 -5.47041C190.275 -2.07634 190.044 1.33697 189.806 4.88103C196.18 -2.38017 203.443 -7.26071 212.21 -9.85867C212.189 -10.1164 212.168 -10.376 212.147 -10.6356ZM202.543 -14.0816C198.876 -15.3988 195.167 -16.7314 191.357 -18.0987C191.127 -14.6854 190.904 -11.374 190.679 -8.06645C194.577 -10.1875 198.528 -12.2009 202.543 -14.0816ZM223.489 8.71739C224.837 13.9787 226.358 19.1938 227.954 24.8724C230.308 23.011 232.244 21.5533 234.08 19.9765C234.582 19.5477 235.017 18.79 235.082 18.142C235.488 14.1325 235.807 10.1135 236.098 6.09444C236.255 3.89646 234.021 2.00232 232.265 2.82728C229.681 4.04453 227.092 5.26948 224.606 6.66749C224.01 7.00209 223.343 8.14627 223.489 8.71739ZM172.854 192.209C170.17 188.965 167.707 185.99 165.159 182.913C163.147 184.107 160.982 185.39 158.422 186.909C162.132 190.307 165.639 193.52 169.305 196.876C170.795 194.916 171.958 193.386 172.854 192.209V192.209ZM185.769 190.994C186.656 188.03 185.888 184.873 182.954 182.806C179.041 187.934 175.179 192.993 171.253 198.141C173.906 200.41 176.566 202.683 179.975 205.603C182.114 200.335 184.337 195.782 185.769 190.994ZM207.951 203.151C208.603 203.499 209.984 203.38 210.51 202.905C212.026 201.543 213.276 199.889 214.591 198.393C210.047 193.342 205.736 188.549 201.417 183.75C198.282 185.94 195.223 188.076 192.04 190.299C196.982 195.28 201.911 199.918 207.951 203.151V203.151ZM190.744 188.59C193.971 186.207 197.003 183.969 199.909 181.825C195.915 176.485 192.236 171.493 188.442 166.589C187.917 165.908 186.856 165.541 185.967 165.26C183.254 164.403 180.525 163.578 177.76 162.914C176.681 162.655 175.493 162.858 174.354 162.849C174.57 163.901 174.506 165.129 175.045 165.972C179.054 172.229 183.15 178.435 187.3 184.6C188.24 185.996 189.506 187.173 190.744 188.59V188.59ZM142.81 169.562C141.414 167.235 140.3 165.379 139.216 163.568C132.629 167.295 126.347 170.852 119.776 174.571C120.943 176.362 122.141 178.198 123.268 179.927C130.035 176.337 136.4 172.962 142.81 169.562ZM181.429 180.498C180.125 178.613 178.835 176.752 177.52 174.85C174.199 177.192 171.03 179.427 167.459 181.946C169.622 184.828 171.737 187.646 174.151 190.859C176.837 187.032 179.114 183.794 181.429 180.498ZM217.208 191.824C212.099 186.436 206.445 181.54 202.397 175.187C199.819 171.141 196.998 167.252 194.259 163.253C192.954 163.841 191.707 164.401 190.357 165.006C198.407 176.098 206.991 186.542 216.41 196.228C219.498 194.034 219.397 194.132 217.208 191.824ZM138.3 183.992C137.687 183.615 136.96 183.334 136.462 182.831C132.901 179.215 129.289 178.844 125.507 182.879C128.543 187.069 131.728 191.469 135.018 196.013C136.17 191.794 137.229 187.911 138.3 183.992V183.992ZM176.481 173.048C175.589 171.71 175.07 170.933 174.335 169.833C167.33 173.241 160.52 176.55 153.396 180.015C154.565 181.623 155.561 182.994 156.778 184.669C163.332 180.804 169.828 176.971 176.481 173.048ZM117.14 175.631C112.675 177.706 108.488 179.652 104.325 181.588C105.44 183.688 106.442 185.575 107.704 187.951C112.188 185.811 116.546 183.73 120.943 181.631C119.563 179.452 118.369 177.569 117.14 175.631ZM260.883 44.0446C264.235 45.8695 267.642 47.5868 271.033 49.3405C271.217 49.2578 271.4 49.1732 271.585 49.0905C268.592 42.0062 264.527 35.5277 259.679 29.3895C259.347 33.772 259.289 38.0641 259.414 42.3524C259.431 42.9408 260.252 43.7023 260.883 44.0446ZM268.758 89.0502C265.212 89.8944 261.256 93.3231 257.237 99.494C256.376 100.815 256.887 103.03 256.741 105.219C258.083 105.219 258.968 105.224 259.852 105.219C265.819 105.178 265.848 105.184 266.946 99.4459C267.594 96.0499 268.137 92.6347 268.758 89.0502V89.0502ZM258.731 73.3202V92.2731C258.979 92.2885 259.229 92.3058 259.479 92.3231C263.739 88.706 268 85.0908 272.329 81.414C267.977 78.6065 264.264 74.7528 258.731 73.3202V73.3202ZM276.859 79.4584C276.936 79.1084 277.015 78.7584 277.094 78.4084C269.21 70.9895 261.323 63.5706 253.083 55.8171C251.876 59.515 250.849 62.6591 249.803 65.8609C250.151 66.1128 250.38 66.357 250.662 66.4724C258.793 69.7665 266.65 73.5279 273.519 79.1314C274.24 79.7199 275.727 79.3718 276.859 79.4584ZM221.912 183.892C221.391 183.369 220.906 182.798 220.333 182.338C214.333 177.527 209.372 171.785 205.109 165.412C203.905 163.614 202.722 161.801 201.434 160.064C201.184 159.728 200.405 159.476 200.013 159.609C198.669 160.06 197.39 160.701 196.046 161.287C203.07 172.854 211.264 182.884 221.11 191.536C225.037 188.742 225.192 187.192 221.912 183.892V183.892ZM264.594 112.555C265.052 111.042 265.177 109.428 265.452 107.749H256.766C256.61 109.686 256.468 111.455 256.289 113.693C258.714 113.828 260.82 114.061 262.916 113.989C263.512 113.97 264.41 113.17 264.594 112.555ZM256.843 116.168C256.368 116.191 255.718 116.739 255.522 117.203C255.312 117.703 255.358 118.816 255.612 118.924C257.758 119.849 259.977 120.606 262.258 121.443C262.877 119.435 263.279 118.13 263.898 116.12C261.214 116.12 259.024 116.059 256.843 116.168V116.168ZM240.001 171.941C240.909 170.864 241.845 169.752 242.78 168.641C238.744 164.193 234.815 159.826 230.815 155.528C230.527 155.218 229.558 155.147 229.167 155.388C224.935 157.993 220.77 160.71 216.554 163.343C213.839 165.039 213.095 167.293 214.887 169.893C217.033 172.998 219.464 175.91 221.971 179.163C224.323 177.075 226.173 175.477 227.973 173.825C234.275 168.047 232.192 167.985 240.001 171.941V171.941ZM246.37 162.731C246.988 161.751 246.82 161.318 245.868 160.433C243.699 158.416 241.969 155.936 239.921 153.776C239.063 152.87 237.928 151.859 236.792 151.674C235.198 151.417 233.45 151.815 232.529 153.938C236.269 158.107 240.013 162.276 244.013 166.733C244.963 165.114 245.634 163.903 246.37 162.731ZM257.635 163.983C259.331 159.039 260.854 154.605 262.487 149.851C259 149.236 256.043 148.713 252.883 148.155C251.987 151.43 251.176 154.343 250.41 157.268C250.297 157.705 250.216 158.447 250.449 158.63C252.685 160.378 254.991 162.035 257.635 163.983H257.635ZM250.553 147.676C246.961 146.807 243.624 146.001 240.286 145.194C240.119 145.407 239.949 145.621 239.782 145.836C241.48 150.086 244.809 153.128 248.357 156.661C249.145 153.43 249.818 150.684 250.553 147.676V147.676ZM155.321 206.06C154.732 200.868 154.128 195.516 153.45 189.513C147.75 193.33 142.812 196.639 137.616 200.12C140.198 203.581 142.819 207.095 145.615 210.843C148.684 209.329 151.805 207.791 155.321 206.06V206.06ZM82.7221 196.903C84.3105 198.118 85.7392 199.872 87.5295 200.397C89.2891 200.914 91.5371 200.512 93.3216 199.845C94.0677 199.568 94.1715 197.566 94.5773 196.316H82.9278C82.8586 196.513 82.7913 196.707 82.7221 196.903ZM113.051 -1.15715C117.036 -3.8801 120.932 -6.73382 124.866 -9.53176C124.918 -9.7856 124.972 -10.0394 125.024 -10.2952C123.58 -10.699 121.716 -11.8855 120.761 -11.374C116.469 -9.07217 112.432 -6.29153 107.869 -3.40512C109.907 -2.57824 110.255 0.752377 113.051 -1.15715V-1.15715ZM180.329 214.558C178.435 217.439 176.714 220.433 174.658 223.819C179.768 222.827 184.483 221.85 189.223 221.021C191.273 220.663 192.534 219.625 193.092 217.704C189.829 216.296 186.71 215.067 183.7 213.61C182.131 212.85 181.066 213.437 180.329 214.558V214.558ZM157.986 208.302C158.071 209.283 158.13 209.92 158.182 210.556C158.561 215.181 158.938 219.804 159.315 224.427H168.176C168.816 224.138 169.793 224.025 170.045 223.534C171.958 219.831 173.727 216.054 175.599 212.185C169.52 210.845 163.851 209.595 157.986 208.302V208.302ZM175.537 209.329C177.152 209.695 177.556 209.062 177.741 207.904C170.301 201.403 162.959 194.991 155.982 188.894C156.453 193.728 157.009 198.872 157.424 204.026C157.551 205.595 158.547 205.837 159.695 206.07C164.978 207.145 170.28 208.139 175.537 209.329V209.329ZM105.746 207.57C104.96 207.722 104.16 207.801 102.625 208.02C103.56 209.349 104.025 210.727 104.95 211.198C108.873 213.194 112.932 214.921 116.942 216.746C117.061 216.615 117.178 216.483 117.297 216.352C116.392 214.854 115.511 213.343 114.578 211.862C110.74 205.762 112.696 206.222 105.746 207.57V207.57ZM97.431 190.217C97.2195 191.055 96.858 191.888 96.8214 192.734C96.683 195.901 96.9753 199.12 96.4926 202.226C95.8907 206.099 96.5791 207.562 100.585 208.502C99.8309 202.447 99.0809 196.416 98.331 190.384C98.031 190.328 97.731 190.272 97.431 190.217V190.217ZM141.641 213.658C140.685 211.458 137.573 207.872 136.443 205.749C132.347 198.053 127.108 192.101 122.955 184.319C121.374 185.132 120.299 185.682 119.513 186.086C124.637 198.012 129.693 209.779 134.824 221.719C135.766 221.152 136.418 220.84 136.975 220.41C140.256 217.862 143.344 217.579 141.641 213.658V213.658ZM109.234 190.542C109.2 190.797 109.107 190.994 109.169 191.111C113.457 199.384 117.728 207.666 122.095 215.9C122.743 217.121 123.643 218.542 124.799 219.09C126.824 220.052 129.135 220.408 131.56 221.083C126.41 209.779 121.432 198.849 116.444 187.901C113.744 188.89 111.469 189.722 109.234 190.542ZM137.554 222.204C142.394 223.611 152.165 224.229 152.165 224.229L145.475 216.041L137.554 222.204ZM146.767 212.779C149.25 216.835 151.575 220.631 153.9 224.427H157.346C156.684 219.137 156.023 213.844 155.303 208.085C152.221 209.779 149.565 211.241 146.767 212.779ZM259.883 164.554C264.441 167.05 264.529 167.027 267.017 162.701C267.504 161.853 268.006 161.01 268.448 160.139C269.717 157.645 270.96 155.138 272.311 152.438C269.515 151.763 267.164 151.195 264.735 150.611C263.079 155.368 261.481 159.962 259.883 164.554V164.554ZM282.944 91.3405C282.609 87.2292 282.119 86.8388 277.663 87.4195C279.584 90.9482 281.476 94.4288 283.37 97.9094V93.4789C283.224 92.7674 283.003 92.0597 282.944 91.3405ZM280.653 99.3363C279.042 95.7018 277.371 92.0924 275.715 88.4752C275.425 88.5137 275.132 88.5541 274.842 88.5926C274.507 99.6767 270.75 109.932 266.896 120.297C269.087 120.77 270.719 121.122 272.469 121.501C275.24 114.399 277.919 107.555 280.567 100.702C280.724 100.29 280.819 99.7113 280.653 99.3363ZM248.63 163.601C246.388 166.879 244.257 170.233 241.992 173.719C245.79 176.148 249.757 178.686 253.958 181.373C256.839 177.6 259.6 173.979 262.485 170.2C258.254 167.737 254.33 165.408 250.343 163.189C249.949 162.97 248.887 163.228 248.63 163.601ZM201.536 202.978C200.08 201.732 198.769 200.318 197.396 198.976C197.392 198.974 197.388 198.972 197.386 198.968C197.011 200.353 196.828 201.828 196.219 203.097C194.507 206.66 192.621 210.141 190.794 213.669C194.8 215.398 194.777 215.383 196.884 212.279C198.461 209.96 200.082 207.668 201.738 205.404C202.418 204.476 202.511 203.816 201.536 202.978L201.536 202.978ZM200.77 216.771C201.007 216.989 201.242 217.206 201.478 217.423C204.891 216.037 208.305 214.652 212.012 213.148C209.909 211.175 208.149 209.527 205.974 207.489C204.113 210.81 202.442 213.791 200.77 216.771V216.771ZM227.646 193.73C220.929 196.699 218.695 203.41 214.189 207.501C215.16 208.745 215.952 209.756 216.856 210.914C221.096 208.318 225.081 205.937 228.979 203.424C229.563 203.047 230.179 201.933 230.034 201.347C229.413 198.841 228.513 196.407 227.646 193.73ZM233.225 172.566C230.502 174.789 227.962 177.233 225.346 179.59C224.36 180.479 224.548 180.963 225.612 181.796C228.285 183.888 230.863 186.121 233.323 188.461C235.577 190.605 237.625 192.965 240.286 195.782C244.128 191.613 247.889 187.53 251.837 183.246C246.461 179.698 241.167 176.15 235.792 172.727C235.136 172.308 233.725 172.156 233.225 172.566V172.566ZM233.034 200.56C233.915 199.905 234.534 199.443 235.011 199.087C233.777 197.716 232.64 196.453 231.106 194.747C231.832 196.941 232.369 198.555 233.034 200.56V200.56ZM189.675 197.791C189.081 198.726 188.669 199.776 188.158 200.764C186.481 204.005 184.798 207.241 183.073 210.566C184.979 211.416 186.677 212.175 188.379 212.935C190.481 208.852 192.371 204.947 194.511 201.185C195.063 200.214 196.403 199.693 197.382 198.966C196.657 198.366 195.888 197.813 195.213 197.159C193.152 195.161 191.234 195.338 189.675 197.791V197.791ZM60.3962 45.0619C58.079 44.2831 55.9406 43.4716 53.7426 42.887C53.1427 42.7293 52.0523 43.0408 51.7216 43.51C50.9024 44.6811 50.3909 46.0657 49.7524 47.3675C52.9581 48.0098 55.9137 48.6021 59.0501 49.229C59.5539 47.6714 59.95 46.4426 60.3962 45.0619V45.0619ZM66.1863 56.644C70.0515 44.4869 73.2167 32.0567 80.5606 21.2976C82.8009 18.017 82.5529 17.6304 78.7088 15.7594C77.7492 17.2516 76.9012 18.8515 75.7955 20.2476C68.8285 29.028 65.5267 39.5294 61.9596 49.877C61.1981 52.0846 60.2539 52.5481 58.2251 52.0212C55.6906 51.3616 53.1388 50.7405 50.5582 50.3212C49.7601 50.1905 48.339 50.527 48.0718 51.0751C46.6507 53.9922 45.5065 57.0421 44.1642 60.2939C51.0024 61.315 57.4405 62.2745 64.0672 63.263C64.7498 61.1342 65.4729 58.8901 66.1863 56.644ZM54.1042 74.1413C54.2292 73.1721 54.383 72.2087 54.6157 70.5972C50.012 70.2569 45.6892 69.9396 41.2663 69.6127C40.6336 72.5875 40.0702 75.2374 39.4433 78.1834C42.8393 78.4392 45.7526 78.7968 48.6698 78.8449C53.4946 78.9276 53.4946 78.8449 54.1042 74.1413V74.1413ZM49.8697 145.344V135.338C47.1699 134.992 44.6104 134.663 41.6624 134.285C42.497 136.923 43.1816 139.231 43.9566 141.507C45.318 145.511 45.5123 145.617 49.8697 145.344V145.344ZM47.3045 63.611C43.2739 62.5361 43.2739 62.5361 42.2336 66.9224C46.468 67.982 47.6506 67.1762 47.3045 63.611ZM106.525 -5.73771C110.721 -7.99145 114.713 -10.6279 118.774 -13.1316C118.624 -13.4297 118.474 -13.7296 118.324 -14.0277C112.859 -12.772 107.99 -10.026 103.002 -7.58185L102.931 -6.85881C104.15 -6.44537 105.752 -5.32042 106.525 -5.73771ZM97.0695 49.5482C97.4137 49.9059 98.3329 50.1905 98.679 49.9866C100.829 48.7155 102.892 47.2983 105.259 45.7503C102.95 42.212 100.865 39.0179 98.3983 35.2354C95.9118 38.2468 93.7658 40.8448 91.5928 43.4754C93.6754 45.8099 95.3215 47.7271 97.0695 49.5482V49.5482ZM74.3782 74.8643C73.709 81.5967 73.4071 80.1314 79.4184 80.9506C80.9279 63.5379 83.7143 46.7772 96.8964 33.5163C94.9927 31.3779 93.012 29.153 90.9563 26.8454C87.6449 29.4799 85.8046 32.8874 84.5931 36.5142C80.3972 49.0809 75.6993 61.5342 74.3782 74.8643V74.8643ZM76.6474 14.3537C74.6263 13.021 74.6128 13.0076 73.2225 14.396C66.0017 21.613 59.7847 29.6145 54.5522 38.3795C54.2426 38.8968 54.0484 39.4852 53.8119 40.0179C56.3425 40.9717 58.6751 41.8505 61.2385 42.8177C65.3806 32.6451 69.2304 22.5244 76.6474 14.3537ZM73.3994 64.5071C74.5167 60.5612 75.3782 56.8113 76.6397 53.2C79.9857 43.6254 81.1933 33.1317 88.668 25.082C87.3565 23.3436 86.0642 21.6303 84.7104 19.838C78.9126 27.1358 66.767 56.5825 66.469 63.9648C68.7958 64.1456 71.1284 64.3302 73.3994 64.5071ZM54.5888 125.635C55.7887 136.388 55.7887 136.388 58.0328 136.761C59.1039 128.068 58.5809 126.277 54.5888 125.635ZM60.9942 148.682H54.0599V153.89C56.1752 154.282 58.1232 154.641 60.1347 155.014C60.45 152.69 60.7077 150.788 60.9942 148.682ZM66.5363 181.09L67.0574 180.808V174.187C65.1152 174.083 63.2499 173.983 60.7404 173.85C62.9672 176.631 64.7517 178.86 66.5363 181.09V181.09ZM49.5409 155.089L49.9178 154.911V148.271C48.8198 148.115 47.8141 147.973 46.218 147.748C47.4872 150.549 48.514 152.82 49.5409 155.089ZM75.4609 166.504H55.4445C57.2213 168.498 58.4943 171.26 60.0635 171.441C65.1287 172.025 70.3034 171.658 75.4609 171.658V166.504ZM76.6377 182.377C82.1663 182.682 87.6949 182.986 93.6696 183.313C92.7966 180.486 91.9909 177.94 91.2255 175.381C90.8005 173.962 89.939 173.617 88.4622 173.691C82.8278 173.967 77.1839 174.069 71.5437 174.252C70.9245 174.271 70.3092 174.385 69.7323 174.448C69.1208 181.559 69.1208 181.559 75.907 182.282C76.1512 182.307 76.3935 182.363 76.6377 182.377ZM48.7967 124.199C45.7007 123.577 42.5739 123.118 39.4414 122.603C39.0895 129.229 40.3048 130.81 46.3449 131.687C47.4718 131.85 48.6121 131.917 50.0236 132.054C50.0236 129.702 50.1043 127.662 49.9678 125.637C49.9332 125.116 49.2813 124.297 48.7967 124.199ZM46.9949 110.693C43.9854 110.617 40.9721 110.653 37.5703 110.653C37.8857 113.449 38.1203 116.032 38.5203 118.585C38.5953 119.06 39.2895 119.693 39.7914 119.799C43.0701 120.483 46.3738 121.041 50.5986 121.81C49.6986 117.926 48.9967 114.743 48.1852 111.59C48.0852 111.201 47.4141 110.705 46.9949 110.693ZM94.2042 193.899V187.051C86.37 186.58 78.7915 186.125 71.2111 185.669C73.4725 188.513 75.9282 190.878 78.4319 193.19C78.8203 193.547 79.4261 193.865 79.9357 193.87C84.6508 193.92 89.3641 193.899 94.2042 193.899V193.899ZM58.327 122.239V112.632C50.314 109.68 52.0293 116.347 54.5753 121.356C55.8502 121.656 56.8502 121.893 58.327 122.239V122.239ZM67.2478 141.238C64.3979 141.081 61.5942 140.148 58.7424 139.911C57.5425 139.813 55.8349 140.261 55.133 141.106C54.2272 142.194 54.0945 143.93 53.3965 146.117H71.5495C71.9726 141.613 71.7014 141.486 67.2478 141.238ZM274.407 121.879C276.811 122.456 278.946 122.968 281.309 123.533C281.517 122.426 281.751 121.406 281.892 120.376C282.401 116.664 282.88 112.947 283.37 109.232V105.294C282.972 104.623 282.572 103.95 282.119 103.184C279.521 109.48 276.992 115.612 274.407 121.879V121.879ZM186.237 77.0912C184.602 77.8584 183.358 78.4719 182.089 79.0315C178.385 80.6698 178.289 81.239 180.431 84.8485C181.881 87.2868 183.175 89.8367 184.314 92.4347C185.623 95.4249 186.64 98.5421 187.89 101.559C188.138 102.157 188.792 102.825 189.39 102.994C191.723 103.655 194.107 104.13 197.336 104.873C196.6 102.298 196.196 100.288 195.448 98.419C194.559 96.198 193.275 94.1384 192.336 91.9328C190.271 87.0753 188.315 82.1717 186.237 77.0912V77.0912ZM173.106 92.852C175.62 92.3712 178.066 91.5482 180.919 90.7405C179.187 87.5195 177.658 84.6754 175.954 81.5083C173.064 82.6467 170.374 83.7062 167.547 84.8196C168.808 87.1388 169.87 89.2675 171.116 91.2828C171.549 91.9847 172.549 92.9577 173.106 92.852V92.852ZM164.572 132.46C165.626 131.166 166.557 130.025 167.691 128.633C164.997 128.302 162.772 128.027 160.093 127.698C161.77 129.481 163.115 130.91 164.572 132.46ZM192.571 133.515C191.109 133.277 189.809 133.156 188.558 132.837C186.188 132.235 183.856 131.496 181.496 130.856C179.316 130.266 178.185 131.317 178.048 133.394C177.9 135.671 177.918 137.961 177.95 140.244C178.006 144.263 178.175 144.423 182.156 144.982C184.515 145.315 185.046 144.83 185.035 142.38C185.027 140.459 185.033 138.538 185.033 136.523C191.055 138.309 191.802 136.927 192.571 133.515H192.571ZM194.403 82.2794C193.936 82.4582 193.284 83.2928 193.382 83.6293C193.953 85.5908 194.721 87.4926 195.526 89.6944C202.161 87.033 208.524 84.4812 215.152 81.8217C214.424 79.691 213.722 77.6334 212.947 75.3624C206.489 77.7565 200.432 79.9795 194.403 82.2794V82.2794ZM81.1221 133.669C84.7239 133.481 87.5757 133.331 90.9044 133.158C88.7583 131.127 87.1988 129.652 85.5796 128.121C84.2278 129.804 82.9317 131.417 81.1221 133.669V133.669ZM217.818 89.556C217.049 87.6868 216.424 85.7581 215.768 83.9524C209.347 86.6676 203.122 89.3002 196.657 92.0347C198.619 96.3595 200.592 100.709 202.567 105.057C202.665 105.273 202.749 105.638 202.895 105.669C205.951 106.278 208.907 108.028 212.147 106.761C214.96 105.661 217.662 104.261 220.51 103.267C222.714 102.498 223.016 101.421 222.077 99.4247C220.554 96.1826 219.183 92.8693 217.818 89.556ZM188.286 72.6433C192.892 70.7722 197.426 68.9319 201.949 67.0935C200.157 61.9438 197.799 57.0094 196.069 51.8366C191.019 53.773 185.987 55.7056 181.4 58.7785C183.752 63.5129 186.019 68.0781 188.286 72.6433V72.6433ZM224.877 108.026C227.829 106.432 231.271 105.749 234.723 104.586C234.198 103.113 233.523 101.223 232.919 99.5286C226.781 102.334 220.81 105.063 214.522 107.938C218.174 109.145 221.341 109.936 224.877 108.026V108.026ZM97.3252 145.751C96.7849 144.078 96.4022 142.663 95.8561 141.311C95.633 140.759 95.1234 140.017 94.6388 139.927C91.7101 139.379 88.7526 138.994 85.6758 138.538C85.8181 141.259 85.9335 143.44 86.0546 145.751H97.3252ZM108.638 154.501C108.932 154.951 109.696 155.532 110.065 155.426C113.003 154.59 115.897 153.599 118.824 152.651C117.488 150.192 116.324 148.049 115.076 145.753C111.586 146.426 108.106 147.098 104.502 147.792C105.952 150.169 107.246 152.367 108.638 154.501V154.501ZM129.351 157.199C134.918 154.843 140.571 152.69 146.204 150.488C150.977 148.622 155.773 146.813 160.54 144.986C159.178 140.806 159.047 140.738 155.446 142.315C154.323 142.807 153.2 143.313 152.117 143.888C144.2 148.092 135.964 151.424 127.157 153.266C125.834 153.543 124.578 154.138 123.276 154.588C125.205 159.103 125.151 158.976 129.351 157.199V157.199ZM128.414 139.675C126.808 133.481 125.33 127.547 123.674 121.664C123.459 120.901 122.422 120.122 121.599 119.843C120.576 119.497 119.38 119.66 117.926 119.589C119.47 126.939 120.955 134 122.497 141.342C124.326 140.827 126.259 140.282 128.414 139.675V139.675ZM168.976 154.472C169.591 151.005 169.895 147.878 170.735 144.905C171.889 140.821 173.512 136.869 174.791 132.816C175.068 131.942 175.106 130.585 174.61 129.969C173.729 128.871 170.32 129.364 169.289 130.502C166.659 133.41 164.053 136.34 161.336 139.375C163.505 144.377 164.424 150.157 168.976 154.472ZM122.184 151.443C125.495 150.609 128.766 149.617 132.397 148.576C131.574 146.53 130.935 144.673 130.064 142.932C129.795 142.392 128.77 141.727 128.312 141.863C124.737 142.927 121.218 144.173 117.453 145.438C118.505 147.274 119.405 149.011 120.484 150.628C120.793 151.094 121.699 151.567 122.184 151.443V151.443ZM176.975 101.105C179.554 101.73 182.231 101.95 185.304 102.392C184.223 99.5363 183.348 97.1075 182.358 94.7269C182.2 94.3519 181.446 93.9038 181.083 93.9865C178.596 94.5634 176.141 95.273 173.727 95.9249C174.147 97.071 174.341 98.0575 174.843 98.8459C175.399 99.7228 176.122 100.898 176.975 101.105V101.105ZM111.367 118.747C111.213 118.73 111.05 118.793 110.29 118.914C110.309 127.291 111.146 135.477 113.307 143.63C114.478 143.396 115.363 143.244 116.234 143.042C120.282 142.1 120.345 142.08 119.528 138.056C118.532 133.162 117.347 128.306 116.363 123.41C115.53 119.268 115.603 119.251 111.367 118.747V118.747ZM176.704 76.6835C177.125 77.2104 178.239 77.7104 178.791 77.5161C180.846 76.7931 182.8 75.7778 184.814 74.8624C183.633 72.6414 182.569 70.6338 181.41 68.4492C178.808 69.7915 176.383 71.0414 173.941 72.301C174.952 73.949 175.699 75.4201 176.704 76.6835V76.6835ZM158.253 66.1205C159.563 68.9569 160.722 71.6568 162.043 74.2778C163.403 76.9739 164.92 79.591 166.453 82.3967C169.283 81.2967 171.828 80.3083 174.529 79.2603C171.066 73.699 167.81 68.4685 164.534 63.2014C162.361 64.2129 160.445 65.1013 158.253 66.1205V66.1205ZM157.232 129.568C158.136 131.95 159.04 134.333 160.02 136.921C161.12 135.962 162.03 135.167 163.22 134.129C161.293 132.291 159.603 130.679 157.915 129.068C157.688 129.235 157.459 129.4 157.232 129.568ZM263.923 61.9226C269.617 67.4781 274.982 72.7106 280.348 77.943C280.455 68.3223 276.052 58.8612 270.531 55.6441C268.287 57.7747 266.127 59.8266 263.923 61.9226V61.9226ZM74.609 128.621H68.8516V136.848C73.9956 137.354 75.7301 134.825 74.609 128.621ZM69.5131 114.153V124.645C71.3572 124.868 73.0225 125.072 74.6609 125.27C75.7859 117.139 73.9782 113.234 69.5131 114.153ZM55.9945 164.043H86.3411C85.8508 162.651 85.3989 161.36 84.9527 160.091C82.7875 160.207 80.701 160.36 78.6126 160.422C72.1649 160.608 65.719 160.762 59.2712 160.922C57.4175 160.968 56.156 161.647 55.9945 164.043ZM64.3806 148.701C63.9095 148.721 63.1653 149.307 63.0634 149.749C62.6922 151.359 62.5422 153.02 62.2576 155.014C64.146 155.014 65.5286 155.001 66.9132 155.016C71.6476 155.066 72.4322 154.222 71.986 148.653C69.4073 148.653 66.8901 148.598 64.3806 148.701V148.701ZM151.338 126.575C147.242 125.3 143.125 124.099 138.525 122.731C139.994 130.458 141.362 137.658 142.767 145.059C147.934 142.744 152.611 140.648 157.524 138.446C155.761 134.802 154.038 131.212 152.277 127.639C152.071 127.222 151.729 126.697 151.338 126.575ZM50.1505 63.6975C49.7044 65.1225 49.389 66.132 48.9563 67.5147C56.1906 68.4589 63.1999 69.4588 70.2342 70.253C73.0821 70.5741 73.3514 70.0549 72.7956 67.1435C65.2094 65.9897 57.6732 64.8417 50.1505 63.6975ZM78.3704 154.726C84.6297 154.645 90.8948 154.688 97.1522 154.884C99.054 154.943 99.6713 154.063 99.8732 152.545C100.148 150.478 98.8444 147.721 97.5464 147.711C90.2929 147.659 83.0394 147.686 75.5455 147.686C75.5455 149.226 75.5839 150.672 75.5359 152.113C75.4705 154.118 76.3493 154.753 78.3704 154.726V154.726ZM61.8615 112.582C61.7307 113.582 61.5019 114.632 61.475 115.691C61.4134 117.982 61.4557 120.278 61.4557 123.208C63.0634 123.429 64.571 123.637 66.4286 123.893C66.4286 121.243 66.419 119.312 66.4305 117.384C66.4632 112.138 66.1901 111.834 61.8615 112.582H61.8615ZM241.026 114.038C241.122 114.376 241.426 114.843 241.717 114.912C245.318 115.782 248.936 116.587 252.789 117.464V108.355C248.099 107.549 243.661 106.79 238.853 105.967C239.584 108.709 240.28 111.38 241.026 114.038V114.038ZM60.9923 136.838H65.644V127.887C64.1537 127.627 62.7807 127.391 60.9923 127.079V136.838ZM72.061 72.8356C67.1036 72.2664 62.1749 71.701 56.9963 71.1068C56.5983 73.8202 56.2598 76.1297 55.8752 78.7526C61.4423 79.0988 66.6267 79.4218 72.061 79.7603V72.8356ZM242.057 49.8347C242.261 52.8 242.769 55.7537 242.832 58.717C242.901 61.9169 245.182 63.0168 247.549 64.5629C248.682 61.2054 249.766 58.0709 250.768 54.9095C250.882 54.5518 250.657 53.8903 250.36 53.6345C247.986 51.5673 245.555 49.5655 242.822 47.2752C242.426 48.5367 242.013 49.2021 242.057 49.8347ZM254.91 71.2107C251.334 69.6357 247.805 67.957 243.611 66.0224C247.453 75.9393 248.58 86.6773 256.026 94.8576C256.516 93.8519 256.862 92.8924 256.751 91.9905C255.989 85.8811 255.824 79.7814 256.716 73.6759C256.931 72.2145 256.062 71.7183 254.91 71.2107V71.2107ZM253.751 102.977C253.797 101.357 254.378 99.4363 252.235 98.5748C249.197 97.3537 246.197 95.9749 243.065 95.0634C239.624 94.0615 238.084 95.4595 238.08 99.0575C238.08 99.4671 238.13 99.8843 238.071 100.284C237.825 101.948 238.473 102.9 240.153 103.261C244.432 104.188 248.699 105.178 253.026 106.155C253.339 104.846 253.724 103.915 253.751 102.977H253.751ZM245.676 45.8157C251.366 50.9001 256.774 55.7325 262.123 60.5112C264.502 58.0728 266.658 55.8652 269.075 53.3884C261.762 49.9366 254.797 45.1061 245.676 45.8157ZM249.316 41.0601V32.0221H245.816C244.845 38.1276 245.947 40.9198 249.316 41.0601ZM186.29 24.8609C186.148 25.6397 186.39 26.9377 186.927 27.2992C188.236 28.18 189.336 30.2645 191.321 29.1145C193.617 27.7838 195.728 26.132 197.242 25.0878C196.303 20.3707 195.488 16.2632 194.617 11.8865C193.071 12.8537 191.234 13.8864 189.54 15.1171C188.888 15.5902 188.352 16.4517 188.125 17.2401C187.404 19.7515 186.761 22.2937 186.29 24.8609V24.8609ZM202.226 25.9954C199.201 27.8146 196.455 29.4645 193.084 31.4913C197.326 33.0413 200.79 34.3047 204.426 35.6335C203.663 32.2932 202.999 29.3857 202.226 25.9954V25.9954ZM199.357 -0.734093C194.667 3.05035 190.225 6.49634 188.708 12.5499C195.715 10.85 197.784 5.52331 199.357 -0.734093ZM180.723 55.1595C184 47.7617 185.269 39.5679 189.136 32.424C187.963 31.9452 186.792 31.4663 185.619 30.9817C182.481 35.6931 178.998 40.8948 175.574 46.1349C175.341 46.4906 175.372 47.2272 175.581 47.6329C177.066 50.5251 178.631 53.3788 179.885 55.7152C180.143 55.5979 180.398 55.4825 180.656 55.3652C180.671 55.2979 180.693 55.2287 180.723 55.1595H180.723ZM183.527 54.0634C191.492 50.4462 199.324 46.8887 207.432 43.2081C206.551 41.6563 206.12 39.6448 205.003 39.1333C200.455 37.0507 195.825 35.1527 191.177 33.2566C187.59 39.7467 186.2 47.1733 183.527 54.0634ZM182.529 5.97137C181.071 5.89252 180.508 6.50019 180.423 7.94628C180.239 11.1327 179.968 14.3191 179.643 17.4958C179.225 21.5803 179.927 22.8456 184.315 24.8705C185.385 18.5727 186.429 12.4172 187.521 5.98675C185.46 5.98675 183.99 6.04829 182.529 5.97137ZM76.3801 140.817C76.2474 142.271 75.9551 143.713 75.6859 145.473C77.8838 145.646 79.8376 145.898 81.7894 145.898C82.4663 145.898 83.7336 145.253 83.722 144.94C83.6432 142.848 83.5816 140.652 82.8432 138.754C82.6355 138.221 80.1703 138.5 78.7415 138.531C77.3146 138.559 76.5185 139.317 76.3801 140.817V140.817ZM219.645 154.893C224.141 151.322 228.544 147.634 233.352 143.663C224.241 141.175 215.468 138.779 206.695 136.383C206.52 136.669 206.343 136.956 206.168 137.242C209.953 143.057 213.708 148.892 217.579 154.649C217.845 155.043 219.243 155.213 219.645 154.893V154.893ZM162.609 43.0831C161.757 44.6984 162.43 46.4368 163.845 46.606C166.726 46.9541 169.695 46.581 172.628 46.4676C172.785 46.4618 172.953 46.1272 173.076 45.9214C173.866 44.61 174.647 43.2908 175.452 41.937C171.854 41.014 168.418 40.1313 164.784 39.1968C164.113 40.389 163.328 41.7178 162.609 43.0831V43.0831ZM153.298 54.2403C152.177 55.4768 152.152 56.294 153.084 57.5055C154.582 59.4458 155.992 61.4534 157.576 63.6206C159.228 62.8437 161.12 61.9515 163.234 60.9573C162.091 58.6574 161.195 56.5575 160.049 54.6057C158.122 51.327 155.909 51.3616 153.298 54.2403V54.2403ZM138.002 32.7297C138.362 33.4297 138.721 34.1316 139.081 34.8354C143.565 32.8028 147.94 30.8202 152.884 28.578C152.321 27.5454 151.759 26.5204 151.2 25.4955C146.9 28.0723 142.467 30.4491 138.002 32.7297V32.7297ZM137.12 19.24C137.091 19.1977 137.073 19.1573 137.052 19.115C135.518 20.1226 134.02 21.1072 132.541 22.0802C134.043 25.0089 135.522 27.8934 137.002 30.7779C139.218 29.6472 141.425 28.4896 143.612 27.2973C141.583 24.5051 139.077 22.0937 137.12 19.24ZM139.016 18.1323C140.979 20.9976 143.498 23.4167 145.533 26.2262C147.083 25.3589 148.627 24.4801 150.148 23.5667C148.388 20.3476 146.642 17.1516 144.898 13.9595C142.792 15.344 140.789 16.6593 138.848 17.9362C138.908 17.992 138.964 18.0573 139.016 18.1323ZM155.053 36.6642C153.227 37.1315 151.4 38.1083 149.773 38.9448C150.204 40.8659 150.619 42.7908 151.094 44.7023C152.023 44.4657 152.944 44.2331 153.867 44.0042C156.457 43.3581 156.972 42.5216 156.159 39.8833C155.826 38.8006 155.43 37.7353 155.053 36.6642V36.6642ZM149.269 36.7642C150.871 35.9911 152.598 35.1162 154.376 34.6124C154.223 34.097 154.082 33.5816 153.969 33.0586C153.63 31.5048 153.082 31.3913 151.842 31.9298C150.694 32.4259 149.546 32.9201 148.39 33.4163C148.421 33.4797 148.448 33.547 148.469 33.6201C148.757 34.6624 149.019 35.7123 149.269 36.7642V36.7642ZM142.01 43.1543C142.529 44.3254 143.042 45.4868 143.55 46.6329C145.435 46.1522 147.223 45.6907 148.967 45.2446C148.534 43.4966 148.15 41.7389 147.758 39.9813C145.817 40.9928 143.904 42.0601 142.01 43.1543V43.1543ZM147.252 37.7699C146.979 36.6026 146.692 35.4373 146.373 34.2816C144.108 35.2489 141.8 36.2315 139.398 37.2584C139.981 38.5737 140.552 39.8621 141.117 41.137C143.137 39.9717 145.175 38.8333 147.252 37.7699V37.7699ZM239.115 93.1135C239.907 93.6692 241.044 93.7346 242.032 94.0135C242.055 93.9269 242.078 93.8404 242.103 93.7539C242.511 93.7212 242.917 93.6827 243.324 93.6577C244.917 93.5539 246.616 93.5346 246.545 91.2713C246.466 88.8387 245.126 87.7003 242.678 88.0349C241.644 88.1772 240.584 88.4983 239.663 88.981C238.873 89.3964 237.776 90.1098 237.709 90.7809C237.634 91.527 238.405 92.6116 239.115 93.1135V93.1135ZM236.059 108.472C235.775 107.803 234.707 106.849 234.25 106.972C230.979 107.851 227.775 108.972 224.548 110.018C224.61 110.222 224.671 110.428 224.733 110.634C228.896 111.684 233.059 112.734 237.73 113.914C237.096 111.765 236.728 110.055 236.059 108.472V108.472ZM214.026 56.9709C210.143 58.6978 206.059 60.0016 202.518 62.3957C203.028 63.6783 203.52 64.9667 203.98 66.2705C208.03 64.6244 212.076 62.9822 216.162 61.3227C215.433 59.8381 214.726 58.3959 214.026 56.9709ZM213.064 55.0114C211.616 52.0635 210.195 49.1713 208.728 46.1791C205.316 48.1636 201.726 49.6463 198.115 51.0481C199.157 54.1941 200.434 57.2517 201.684 60.3208C205.207 58.0093 209.235 56.7248 213.064 55.0114ZM241.565 75.7854C238.228 76.5431 234.867 77.1912 231.525 77.9219C230.629 78.118 229.763 78.4526 228.811 78.7449C230.265 81.0179 231.715 82.9582 232.798 85.0869C233.621 86.708 234.775 86.7965 236.205 86.5311C239.165 85.9869 242.119 85.4081 245.851 84.6947C245.243 82.2486 244.367 79.8391 244.117 77.3661C243.905 75.2855 243.02 75.4547 241.565 75.7854V75.7854ZM189.525 74.9701C190.432 76.8662 191.192 78.4507 192.19 80.5352C198.219 78.1488 204.14 75.7912 210.072 73.4606C213.458 72.1318 214.687 72.6125 215.847 75.9777C217.42 80.5429 218.708 85.21 220.366 89.7406C221.781 93.6115 223.544 97.3518 225.235 101.342C227.621 100.075 229.704 98.969 232.136 97.6787C227.267 86.1407 222.429 74.6817 217.662 63.386C207.916 67.3993 198.819 71.1453 189.525 74.9701V74.9701ZM172.306 70.2434C175.024 68.9127 177.573 67.6627 180.404 66.2782C179.589 64.659 178.81 63.2495 178.164 61.7823C177.52 60.3208 177.098 58.7555 176.412 57.3171C175.766 55.9614 175.083 54.546 174.097 53.4423C170.506 49.4251 167.014 48.9751 161.732 51.7289C165.22 57.8363 168.705 63.936 172.306 70.2434V70.2434ZM109.869 204.483C109.532 203.835 109.319 203.42 109.104 203.006C106.965 198.912 104.861 194.801 102.656 190.744C102.329 190.144 101.523 189.805 100.492 188.994C101.3 195.024 102.01 200.334 102.783 206.106C105.386 205.51 107.544 205.016 109.869 204.483V204.483ZM87.0949 166.127C84.0105 166.285 81.126 166.431 78.18 166.581V172.289C81.9548 172.116 85.4873 171.956 89.341 171.781C88.491 169.641 87.7853 167.868 87.0949 166.127ZM78.4165 132.992C80.3337 130.706 82.2336 128.439 84.1643 126.137C82.3894 123.937 80.8318 122.008 79.2145 120.003C77.1127 123.006 76.5897 131.173 78.4165 132.992V132.992ZM98.5348 187.505L101.958 186.896C102.529 186.794 102.84 186.169 102.575 185.652L91.0409 163.128C90.8352 162.726 90.9736 162.233 91.3582 161.997L93.4773 160.699C93.9196 160.428 94.0254 159.828 93.7004 159.422C93.5004 159.172 93.1754 159.053 92.8601 159.114L88.3968 159.989C87.8718 160.093 87.5661 160.645 87.7565 161.145L97.5752 186.961C97.7233 187.35 98.1252 187.576 98.5348 187.505V187.505ZM109.982 65.0975C111.365 67.0532 112.567 68.7531 113.805 70.503C115.482 69.5838 116.892 68.8127 118.482 67.9397C117.494 65.909 116.547 63.9648 115.48 61.7746C113.519 62.9591 111.821 63.986 109.982 65.0975V65.0975ZM92.3062 58.4709C95.7484 61.3092 98.679 63.6591 101.525 66.1051C102.715 67.1301 103.6 66.9609 104.706 65.9897C107.565 63.4745 110.503 61.0477 113.669 58.367C111.617 55.3441 109.359 52.0212 107.048 48.6175C102.04 51.9635 97.2829 55.1441 92.3062 58.4709V58.4709ZM132.989 -3.01476C132.547 -3.55512 130.962 -3.83972 130.383 -3.47627C126.364 -0.961006 122.47 1.75618 118.344 4.53874C118.943 5.78484 119.211 7.57322 120.155 8.06935C123.151 9.64043 124.516 12.4788 126.424 14.9267C127.858 16.767 129.466 18.4708 131.043 20.288C135.366 17.5535 139.498 14.9383 143.592 12.348C142.319 10.1616 141.337 8.16934 140.077 6.37327C137.825 3.1638 135.475 0.0139495 132.989 -3.01476ZM82.6413 81.6909C84.9816 82.139 87.2584 82.5755 88.8699 82.8832C90.7025 76.6739 92.4466 70.8338 94.1139 64.9706C94.2504 64.4898 94.0389 63.6495 93.6773 63.3341C91.2871 61.2477 88.8122 59.2612 86.1623 57.0767C83.8778 65.2782 82.1009 73.2125 82.6413 81.6909ZM86.6892 54.9614C88.1622 55.7556 89.3602 56.4017 89.9852 56.7363C91.9293 55.0345 93.7004 53.4846 96.3253 51.1866C94.3254 49.4405 92.4851 47.8329 90.2275 45.8618C88.9122 49.2424 87.8045 52.0923 86.6892 54.9614V54.9614ZM90.9832 130.294C91.1717 130.162 91.3601 130.029 91.5486 129.896C91.5486 126.402 91.5352 122.908 91.5543 119.414C91.5639 117.912 90.8467 117.359 89.4006 117.584C87.0199 117.959 84.6354 118.31 81.7452 118.749C84.9739 122.783 87.9795 126.539 90.9832 130.294H90.9832ZM161.924 163.762C157.155 165.826 152.663 167.768 148.077 169.752C149.59 172.992 150.85 175.689 152.165 178.504C156.438 175.906 160.455 173.464 164.739 170.86C163.859 168.639 162.965 166.387 161.924 163.762V163.762ZM96.1638 116.653C95.4599 116.787 94.4658 117.899 94.4369 118.607C94.3235 121.283 94.3312 124.006 94.7061 126.654C95.2234 130.294 95.385 130.271 99.5001 129.218C99.2328 125.612 98.8675 122.128 98.7579 118.635C98.6963 116.678 97.4291 116.41 96.1638 116.653V116.653ZM108.623 144.434C109.323 144.288 110.013 144.1 110.702 143.932C109.844 139.654 109.013 135.517 108.142 131.179C104.092 131.541 100.048 131.9 95.2619 132.325C96.4714 135.233 97.2272 137.944 98.6348 140.259C102.038 145.853 102.162 145.78 108.623 144.434ZM104.183 168.15C106.392 167.199 108.288 166.381 110.24 165.541C105.608 159.109 104.075 158.357 99.8482 160.447C101.25 162.937 102.646 165.418 104.183 168.15ZM93.8773 162.141C91.962 163.806 93.8542 165.237 94.4696 166.639C96.581 171.45 96.8445 171.508 101.504 169.173C101.623 169.114 101.675 168.922 101.833 168.675C100.354 166.045 98.8463 163.364 97.1541 160.355C95.9618 160.985 94.7561 161.376 93.8773 162.141ZM101.84 129.32C103.925 129.116 105.909 128.921 108.002 128.718C107.821 125.158 107.644 121.714 107.467 118.228C105.363 117.943 103.456 117.687 101.283 117.393C101.475 121.529 101.654 125.314 101.84 129.32V129.32ZM111.905 75.2566C118.195 80.8064 123.964 85.8965 129.733 90.9867C129.93 90.829 130.128 90.6713 130.326 90.5136C126.603 83.7908 122.88 77.0681 118.913 69.9088C116.628 71.6529 114.405 73.3471 111.905 75.2566V75.2566ZM105.375 69.1934C107.198 70.8934 108.886 72.4664 110.652 74.1124C111.365 73.2683 111.884 72.6548 112.515 71.9087C111.011 70.1126 109.68 68.5262 108.279 66.8532C107.257 67.6762 106.392 68.3743 105.375 69.1934V69.1934ZM112.59 175.646C116.099 174.087 116.105 174.021 114.04 170.85C113.519 170.05 112.994 169.25 112.507 168.508C107.957 170.327 103.663 172.044 99.1848 173.837C100.585 175.925 101.896 177.883 103.144 179.744C106.461 178.308 109.536 177.002 112.59 175.646ZM91.789 83.6293C101.933 85.8581 111.709 88.008 121.484 90.1559C121.568 89.9098 121.653 89.6637 121.74 89.4156C112.782 83.7543 102.019 82.014 92.7562 76.245C92.4101 78.8892 92.1101 81.1833 91.789 83.6293V83.6293ZM94.5484 70.3338C93.36 73.6105 93.2812 74.0394 96.4618 75.4797C102.698 78.3084 109.1 80.7756 115.434 83.3928C115.561 83.2063 115.69 83.0197 115.817 82.8332C109.44 77.1392 103.065 71.4472 96.3791 65.4763C95.6311 67.4589 95.0734 68.8915 94.5484 70.3338ZM186.904 160.214C186.736 158.764 186.66 157.295 186.383 155.866C185.521 151.424 183.429 148.359 178.264 148.707C176.718 148.813 175.964 147.996 175.96 146.307C175.954 144.64 175.602 142.975 175.402 141.309C175.154 141.279 174.908 141.25 174.66 141.219C173.716 146.092 172.772 150.965 171.826 155.841C175.599 157.282 179.002 158.71 182.5 159.855C183.862 160.301 185.431 160.112 186.904 160.214V160.214ZM215.468 156.843C213.266 153.543 211.049 150.22 208.778 146.815C206.27 148.546 203.79 150.259 201.305 151.974C204.334 159.624 210.803 161.905 215.468 156.843ZM191.332 150.113C194.527 150.103 195.126 149.099 193.723 146.19C193.013 144.715 192.352 143.217 191.7 141.717C190.765 139.571 189.198 138.608 187.515 139.417C185.642 140.317 186.127 141.917 186.635 143.45C187.019 144.615 187.644 145.79 187.663 146.969C187.71 149.557 189.186 150.147 191.332 150.113V150.113ZM189.113 162.503C192.425 160.276 195.45 158.245 198.484 156.207C195.732 152.961 195.732 153.045 190.806 153.003C188.94 152.986 188.26 153.768 188.379 155.424C188.527 157.516 188.804 159.601 189.113 162.503ZM207.655 144.867C206.932 143.548 206.32 142.396 205.672 141.265C205.022 140.129 204.311 139.029 203.67 137.888C202.422 135.669 199.509 134.362 197.117 135.127C195.498 135.642 193.952 136.379 191.975 137.175C194.486 141.446 196.867 145.496 199.44 149.872C202.376 148.082 204.986 146.492 207.655 144.867ZM173.183 167.681C171.829 165.291 170.583 163.091 169.191 160.637C167.422 161.51 165.903 162.258 164.357 163.022C165.257 165.537 166.101 167.897 166.972 170.331C169.091 169.427 171.083 168.577 173.183 167.681ZM137.721 162.38C136.891 160.358 136.162 158.584 135.373 156.666C133.583 157.455 131.866 158.21 130.149 158.966C124.153 161.601 125.245 162.081 121.705 156.872C121.347 156.345 120.363 155.766 119.853 155.901C117.024 156.655 114.251 157.622 111.071 158.641C113.671 163.353 116.136 167.818 118.799 172.643C125.245 169.147 131.579 165.712 137.721 162.38V162.38ZM167.945 158.307C165.784 154.226 163.734 150.357 161.757 146.623C153.409 149.732 145.39 152.717 136.787 155.918C139.602 160.222 142.16 164.131 144.6 167.86C152.467 164.641 160.092 161.52 167.945 158.307ZM153.842 185.89C151.215 181.744 148.671 177.731 145.981 173.485C142.592 180.811 138.931 187.932 137.839 196.234C143.169 192.788 148.498 189.344 153.842 185.89V185.89ZM135.779 122.128C132.862 121.445 129.901 120.951 126.153 120.239C129.087 129.956 131.791 138.913 134.56 148.08C136.92 147.309 138.885 146.667 140.791 146.044C139.477 138.367 138.245 131.037 136.933 123.718C136.825 123.118 136.273 122.243 135.779 122.128V122.128ZM133.795 178.052C137.008 176.344 139.843 174.837 143.292 173.002C141.865 176.229 140.679 178.91 139.362 181.892C137.527 180.627 135.885 179.494 133.795 178.052" fill="#A6A6A6"/>
<path d="M143.944 142.55C147.962 142.55 151.219 139.293 151.219 135.275C151.219 131.257 147.962 128 143.944 128C139.926 128 136.669 131.257 136.669 135.275C136.669 139.293 139.926 142.55 143.944 142.55Z" fill="#E51E13" stroke="#322122"/>
<path d="M166.109 121.825L275.751 149.086" stroke="#F5A713" stroke-width="3"/>
<path d="M141.587 118.117L42.6968 104.753" stroke="#F5A713" stroke-width="3"/>
<path d="M146.517 105.785L96.2466 23.3862" stroke="#F5A713" stroke-width="3"/>
<path d="M178.972 145.748H114.716V159.733H178.972V145.748Z" fill="#2EE040"/>
<path d="M116.876 148.051H117.943L120.078 151.644H120.168L122.303 148.051H123.37L120.589 152.576V155.748H119.657V152.576L116.876 148.051ZM125.984 155.868C125.463 155.868 125.006 155.744 124.612 155.496C124.222 155.248 123.916 154.901 123.695 154.455C123.477 154.009 123.369 153.488 123.369 152.891C123.369 152.29 123.477 151.765 123.695 151.317C123.916 150.868 124.222 150.52 124.612 150.272C125.006 150.024 125.463 149.9 125.984 149.9C126.505 149.9 126.961 150.024 127.352 150.272C127.746 150.52 128.051 150.868 128.269 151.317C128.49 151.765 128.6 152.29 128.6 152.891C128.6 153.488 128.49 154.009 128.269 154.455C128.051 154.901 127.746 155.248 127.352 155.496C126.961 155.744 126.505 155.868 125.984 155.868ZM125.984 155.071C126.38 155.071 126.706 154.97 126.961 154.767C127.217 154.564 127.406 154.297 127.529 153.966C127.652 153.635 127.713 153.277 127.713 152.891C127.713 152.505 127.652 152.146 127.529 151.813C127.406 151.479 127.217 151.21 126.961 151.005C126.706 150.799 126.38 150.696 125.984 150.696C125.588 150.696 125.263 150.799 125.007 151.005C124.752 151.21 124.562 151.479 124.44 151.813C124.317 152.146 124.255 152.505 124.255 152.891C124.255 153.277 124.317 153.635 124.44 153.966C124.562 154.297 124.752 154.564 125.007 154.767C125.263 154.97 125.588 155.071 125.984 155.071ZM133.592 153.387V149.975H134.479V155.748H133.592V154.77H133.532C133.397 155.064 133.186 155.313 132.9 155.518C132.615 155.721 132.254 155.823 131.818 155.823C131.457 155.823 131.137 155.744 130.856 155.586C130.575 155.426 130.355 155.185 130.194 154.864C130.034 154.541 129.954 154.134 129.954 153.643V149.975H130.841V153.583C130.841 154.004 130.959 154.339 131.194 154.59C131.432 154.841 131.735 154.966 132.104 154.966C132.324 154.966 132.548 154.909 132.776 154.797C133.007 154.684 133.2 154.511 133.355 154.278C133.513 154.045 133.592 153.748 133.592 153.387ZM136.103 155.748V149.975H136.96V150.847H137.02C137.126 150.561 137.316 150.329 137.592 150.151C137.867 149.974 138.178 149.885 138.524 149.885C138.589 149.885 138.67 149.886 138.768 149.888C138.866 149.891 138.94 149.895 138.99 149.9V150.802C138.96 150.794 138.891 150.783 138.783 150.768C138.678 150.75 138.566 150.742 138.449 150.742C138.168 150.742 137.917 150.8 137.697 150.918C137.479 151.033 137.306 151.194 137.178 151.399C137.053 151.602 136.99 151.834 136.99 152.095V155.748H136.103ZM143.138 155.748V148.051H144.07V151.478H148.174V148.051H149.106V155.748H148.174V152.305H144.07V155.748H143.138ZM153.197 155.868C152.676 155.868 152.219 155.744 151.825 155.496C151.434 155.248 151.129 154.901 150.908 154.455C150.69 154.009 150.581 153.488 150.581 152.891C150.581 152.29 150.69 151.765 150.908 151.317C151.129 150.868 151.434 150.52 151.825 150.272C152.219 150.024 152.676 149.9 153.197 149.9C153.718 149.9 154.174 150.024 154.565 150.272C154.958 150.52 155.264 150.868 155.482 151.317C155.703 151.765 155.813 152.29 155.813 152.891C155.813 153.488 155.703 154.009 155.482 154.455C155.264 154.901 154.958 155.248 154.565 155.496C154.174 155.744 153.718 155.868 153.197 155.868ZM153.197 155.071C153.593 155.071 153.919 154.97 154.174 154.767C154.43 154.564 154.619 154.297 154.742 153.966C154.865 153.635 154.926 153.277 154.926 152.891C154.926 152.505 154.865 152.146 154.742 151.813C154.619 151.479 154.43 151.21 154.174 151.005C153.919 150.799 153.593 150.696 153.197 150.696C152.801 150.696 152.475 150.799 152.22 151.005C151.964 151.21 151.775 151.479 151.652 151.813C151.53 152.146 151.468 152.505 151.468 152.891C151.468 153.277 151.53 153.635 151.652 153.966C151.775 154.297 151.964 154.564 152.22 154.767C152.475 154.97 152.801 155.071 153.197 155.071ZM160.805 153.387V149.975H161.692V155.748H160.805V154.77H160.745C160.609 155.064 160.399 155.313 160.113 155.518C159.828 155.721 159.467 155.823 159.031 155.823C158.67 155.823 158.349 155.744 158.069 155.586C157.788 155.426 157.568 155.185 157.407 154.864C157.247 154.541 157.167 154.134 157.167 153.643V149.975H158.054V153.583C158.054 154.004 158.171 154.339 158.407 154.59C158.645 154.841 158.948 154.966 159.317 154.966C159.537 154.966 159.761 154.909 159.989 154.797C160.22 154.684 160.413 154.511 160.568 154.278C160.726 154.045 160.805 153.748 160.805 153.387ZM167.405 151.268L166.609 151.493C166.558 151.36 166.484 151.231 166.387 151.106C166.292 150.978 166.161 150.873 165.996 150.79C165.831 150.708 165.619 150.666 165.361 150.666C165.007 150.666 164.713 150.748 164.478 150.911C164.245 151.071 164.128 151.275 164.128 151.523C164.128 151.744 164.208 151.918 164.369 152.046C164.529 152.173 164.779 152.28 165.12 152.365L165.977 152.576C166.493 152.701 166.878 152.893 167.131 153.151C167.384 153.406 167.511 153.736 167.511 154.139C167.511 154.47 167.415 154.765 167.225 155.026C167.037 155.287 166.774 155.492 166.436 155.642C166.097 155.793 165.704 155.868 165.256 155.868C164.667 155.868 164.179 155.74 163.794 155.484C163.408 155.229 163.163 154.856 163.061 154.365L163.903 154.154C163.983 154.465 164.134 154.698 164.357 154.853C164.583 155.008 164.877 155.086 165.241 155.086C165.654 155.086 165.982 154.998 166.225 154.823C166.471 154.645 166.593 154.432 166.593 154.184C166.593 153.984 166.523 153.816 166.383 153.681C166.243 153.543 166.027 153.44 165.737 153.372L164.774 153.147C164.246 153.022 163.857 152.827 163.609 152.564C163.364 152.299 163.241 151.967 163.241 151.568C163.241 151.243 163.333 150.954 163.515 150.704C163.701 150.453 163.953 150.257 164.271 150.114C164.592 149.971 164.955 149.9 165.361 149.9C165.932 149.9 166.381 150.025 166.706 150.275C167.034 150.526 167.267 150.857 167.405 151.268ZM171.266 155.868C170.71 155.868 170.23 155.745 169.827 155.5C169.426 155.251 169.116 154.906 168.898 154.462C168.683 154.016 168.575 153.498 168.575 152.906C168.575 152.315 168.683 151.794 168.898 151.343C169.116 150.889 169.419 150.536 169.808 150.283C170.199 150.027 170.655 149.9 171.176 149.9C171.476 149.9 171.773 149.95 172.066 150.05C172.36 150.15 172.626 150.313 172.867 150.539C173.108 150.762 173.299 151.057 173.442 151.426C173.585 151.794 173.656 152.247 173.656 152.786V153.162H169.206V152.395H172.754C172.754 152.069 172.689 151.779 172.559 151.523C172.431 151.268 172.248 151.066 172.01 150.918C171.775 150.77 171.496 150.696 171.176 150.696C170.822 150.696 170.517 150.784 170.259 150.96C170.003 151.132 169.807 151.358 169.669 151.636C169.531 151.914 169.462 152.212 169.462 152.53V153.042C169.462 153.478 169.537 153.847 169.687 154.15C169.84 154.451 170.052 154.68 170.323 154.838C170.593 154.993 170.908 155.071 171.266 155.071C171.499 155.071 171.709 155.038 171.897 154.973C172.088 154.906 172.252 154.805 172.39 154.673C172.528 154.537 172.634 154.37 172.709 154.169L173.566 154.41C173.476 154.7 173.324 154.956 173.111 155.176C172.898 155.394 172.635 155.565 172.322 155.687C172.009 155.808 171.657 155.868 171.266 155.868Z" fill="black"/>
<path d="M63.5001 82.4366H-0.755859V96.4217H63.5001V82.4366Z" fill="#2EE040"/>
<path d="M10.3818 93.5705V85.8735H12.9825C13.5838 85.8735 14.0774 85.9763 14.4633 86.1817C14.8491 86.3847 15.1347 86.664 15.3201 87.0198C15.5056 87.3756 15.5983 87.7802 15.5983 88.2337C15.5983 88.6872 15.5056 89.0894 15.3201 89.4401C15.1347 89.7909 14.8504 90.0665 14.467 90.267C14.0837 90.4649 13.5938 90.5639 12.9975 90.5639H10.8929V89.722H12.9675C13.3784 89.722 13.7091 89.6619 13.9597 89.5416C14.2127 89.4213 14.3956 89.251 14.5084 89.0305C14.6236 88.8075 14.6812 88.5419 14.6812 88.2337C14.6812 87.9255 14.6236 87.6562 14.5084 87.4257C14.3931 87.1952 14.2089 87.0173 13.9559 86.892C13.7028 86.7642 13.3683 86.7003 12.9524 86.7003H11.3138V93.5705H10.3818ZM14.0047 90.1129L15.8989 93.5705H14.8165L12.9524 90.1129H14.0047ZM19.3143 93.6908C18.7931 93.6908 18.3359 93.5667 17.9425 93.3187C17.5516 93.0706 17.246 92.7236 17.0255 92.2776C16.8075 91.8317 16.6985 91.3105 16.6985 90.7142C16.6985 90.1129 16.8075 89.588 17.0255 89.1395C17.246 88.691 17.5516 88.3427 17.9425 88.0947C18.3359 87.8466 18.7931 87.7226 19.3143 87.7226C19.8354 87.7226 20.2914 87.8466 20.6823 88.0947C21.0757 88.3427 21.3813 88.691 21.5993 89.1395C21.8198 89.588 21.93 90.1129 21.93 90.7142C21.93 91.3105 21.8198 91.8317 21.5993 92.2776C21.3813 92.7236 21.0757 93.0706 20.6823 93.3187C20.2914 93.5667 19.8354 93.6908 19.3143 93.6908ZM19.3143 92.894C19.7101 92.894 20.0359 92.7925 20.2914 92.5896C20.547 92.3866 20.7362 92.1198 20.8589 91.7891C20.9817 91.4583 21.0431 91.1 21.0431 90.7142C21.0431 90.3283 20.9817 89.9688 20.8589 89.6356C20.7362 89.3023 20.547 89.033 20.2914 88.8275C20.0359 88.6221 19.7101 88.5194 19.3143 88.5194C18.9184 88.5194 18.5927 88.6221 18.3371 88.8275C18.0816 89.033 17.8924 89.3023 17.7696 89.6356C17.6468 89.9688 17.5855 90.3283 17.5855 90.7142C17.5855 91.1 17.6468 91.4583 17.7696 91.7891C17.8924 92.1198 18.0816 92.3866 18.3371 92.5896C18.5927 92.7925 18.9184 92.894 19.3143 92.894ZM26.922 91.2103V87.7978H27.8089V93.5705H26.922V92.5933H26.8618C26.7265 92.8865 26.5161 93.1358 26.2305 93.3412C25.9448 93.5442 25.584 93.6457 25.1481 93.6457C24.7873 93.6457 24.4666 93.5667 24.1859 93.4089C23.9053 93.2485 23.6848 93.008 23.5245 92.6873C23.3641 92.3641 23.284 91.9569 23.284 91.4659V87.7978H24.1709V91.4057C24.1709 91.8267 24.2887 92.1624 24.5242 92.4129C24.7622 92.6635 25.0654 92.7888 25.4337 92.7888C25.6542 92.7888 25.8784 92.7324 26.1064 92.6196C26.3369 92.5069 26.5299 92.334 26.6852 92.101C26.8431 91.868 26.922 91.5711 26.922 91.2103ZM31.944 87.7978V88.5494H28.9524V87.7978H31.944ZM29.8243 86.4147H30.7113V91.9168C30.7113 92.1674 30.7476 92.3553 30.8203 92.4806C30.8954 92.6034 30.9906 92.686 31.1059 92.7286C31.2236 92.7687 31.3477 92.7888 31.478 92.7888C31.5757 92.7888 31.6559 92.7838 31.7185 92.7737C31.7811 92.7612 31.8312 92.7512 31.8688 92.7437L32.0492 93.5404C31.9891 93.563 31.9052 93.5855 31.7974 93.6081C31.6897 93.6331 31.5531 93.6457 31.3878 93.6457C31.1372 93.6457 30.8917 93.5918 30.6511 93.4841C30.4131 93.3763 30.2152 93.2122 30.0573 92.9917C29.902 92.7712 29.8243 92.4931 29.8243 92.1574V86.4147ZM35.6365 93.6908C35.0803 93.6908 34.6005 93.568 34.1971 93.3224C33.7962 93.0744 33.4868 92.7286 33.2688 92.2852C33.0533 91.8392 32.9456 91.3205 32.9456 90.7292C32.9456 90.1379 33.0533 89.6168 33.2688 89.1658C33.4868 88.7123 33.7899 88.359 34.1783 88.1059C34.5691 87.8504 35.0252 87.7226 35.5463 87.7226C35.847 87.7226 36.1439 87.7727 36.437 87.8729C36.7302 87.9732 36.997 88.136 37.2375 88.3615C37.4781 88.5845 37.6697 88.8802 37.8126 89.2485C37.9554 89.6168 38.0268 90.0703 38.0268 90.609V90.9848H33.577V90.2181H37.1248C37.1248 89.8924 37.0596 89.6017 36.9294 89.3462C36.8016 89.0906 36.6187 88.8889 36.3806 88.7411C36.1451 88.5933 35.867 88.5194 35.5463 88.5194C35.193 88.5194 34.8874 88.6071 34.6293 88.7824C34.3737 88.9553 34.177 89.1808 34.0392 89.4589C33.9014 89.737 33.8325 90.0352 33.8325 90.3534V90.8645C33.8325 91.3005 33.9077 91.6701 34.058 91.9732C34.2109 92.2739 34.4226 92.5031 34.6932 92.661C34.9638 92.8163 35.2782 92.894 35.6365 92.894C35.8695 92.894 36.08 92.8614 36.2679 92.7963C36.4583 92.7286 36.6224 92.6284 36.7602 92.4956C36.898 92.3603 37.0045 92.1925 37.0797 91.992L37.9366 92.2325C37.8464 92.5232 37.6948 92.7788 37.4818 92.9992C37.2689 93.2172 37.0058 93.3876 36.6926 93.5104C36.3794 93.6306 36.0274 93.6908 35.6365 93.6908ZM42.7885 93.5705H41.8114L44.6376 85.8735H45.5997L48.426 93.5705H47.4488L45.1487 87.0912H45.0886L42.7885 93.5705ZM43.1493 90.5639H47.088V91.3907H43.1493V90.5639Z" fill="black"/>
<path d="M128.89 2.11664H64.6338V16.1017H128.89V2.11664Z" fill="#2EE040"/>
<path d="M75.7714 13.2505V5.55358H78.3721C78.9735 5.55358 79.4671 5.65631 79.8529 5.86176C80.2388 6.06471 80.5244 6.34407 80.7098 6.69986C80.8952 7.05564 80.9879 7.46028 80.9879 7.91378C80.9879 8.36728 80.8952 8.76942 80.7098 9.12019C80.5244 9.47097 80.24 9.74657 79.8567 9.94702C79.4733 10.145 78.9835 10.2439 78.3872 10.2439H76.2825V9.40206H78.3571C78.768 9.40206 79.0987 9.34193 79.3493 9.22167C79.6024 9.1014 79.7853 8.93103 79.898 8.71054C80.0133 8.48755 80.0709 8.22196 80.0709 7.91378C80.0709 7.6056 80.0133 7.33626 79.898 7.10575C79.7828 6.87524 79.5986 6.69735 79.3455 6.57208C79.0925 6.44429 78.758 6.3804 78.3421 6.3804H76.7035V13.2505H75.7714ZM79.3944 9.79293L81.2886 13.2505H80.2062L78.3421 9.79293H79.3944ZM84.7039 13.3708C84.1828 13.3708 83.7255 13.2468 83.3321 12.9987C82.9413 12.7507 82.6356 12.4037 82.4151 11.9577C82.1971 11.5117 82.0881 10.9906 82.0881 10.3943C82.0881 9.79293 82.1971 9.26802 82.4151 8.81953C82.6356 8.37104 82.9413 8.02277 83.3321 7.77473C83.7255 7.52668 84.1828 7.40266 84.7039 7.40266C85.2251 7.40266 85.6811 7.52668 86.0719 7.77473C86.4653 8.02277 86.771 8.37104 86.989 8.81953C87.2094 9.26802 87.3197 9.79293 87.3197 10.3943C87.3197 10.9906 87.2094 11.5117 86.989 11.9577C86.771 12.4037 86.4653 12.7507 86.0719 12.9987C85.6811 13.2468 85.2251 13.3708 84.7039 13.3708ZM84.7039 12.5741C85.0998 12.5741 85.4255 12.4726 85.6811 12.2696C85.9366 12.0667 86.1258 11.7999 86.2486 11.4691C86.3713 11.1384 86.4327 10.7801 86.4327 10.3943C86.4327 10.0084 86.3713 9.64886 86.2486 9.31562C86.1258 8.98239 85.9366 8.71305 85.6811 8.50759C85.4255 8.30214 85.0998 8.19941 84.7039 8.19941C84.308 8.19941 83.9823 8.30214 83.7268 8.50759C83.4712 8.71305 83.282 8.98239 83.1593 9.31562C83.0365 9.64886 82.9751 10.0084 82.9751 10.3943C82.9751 10.7801 83.0365 11.1384 83.1593 11.4691C83.282 11.7999 83.4712 12.0667 83.7268 12.2696C83.9823 12.4726 84.308 12.5741 84.7039 12.5741ZM92.3116 10.8903V7.47782H93.1986V13.2505H92.3116V12.2734H92.2515C92.1162 12.5665 91.9057 12.8158 91.6201 13.0213C91.3345 13.2242 90.9737 13.3257 90.5377 13.3257C90.1769 13.3257 89.8562 13.2468 89.5756 13.0889C89.295 12.9286 89.0745 12.6881 88.9141 12.3674C88.7538 12.0441 88.6736 11.637 88.6736 11.1459V7.47782H89.5606V11.0858C89.5606 11.5067 89.6783 11.8424 89.9138 12.093C90.1519 12.3435 90.455 12.4688 90.8233 12.4688C91.0438 12.4688 91.2681 12.4125 91.4961 12.2997C91.7266 12.187 91.9195 12.0141 92.0749 11.7811C92.2327 11.548 92.3116 11.2511 92.3116 10.8903ZM97.3336 7.47782V8.22948H94.342V7.47782H97.3336ZM95.214 6.09477H96.1009V11.5969C96.1009 11.8475 96.1372 12.0354 96.2099 12.1606C96.2851 12.2834 96.3803 12.3661 96.4955 12.4087C96.6133 12.4488 96.7373 12.4688 96.8676 12.4688C96.9653 12.4688 97.0455 12.4638 97.1081 12.4538C97.1708 12.4413 97.2209 12.4312 97.2585 12.4237L97.4389 13.2205C97.3787 13.243 97.2948 13.2656 97.1871 13.2881C97.0793 13.3132 96.9428 13.3257 96.7774 13.3257C96.5269 13.3257 96.2813 13.2718 96.0408 13.1641C95.8028 13.0564 95.6048 12.8923 95.447 12.6718C95.2916 12.4513 95.214 12.1732 95.214 11.8374V6.09477ZM101.026 13.3708C100.47 13.3708 99.9901 13.248 99.5867 13.0025C99.1858 12.7545 98.8764 12.4087 98.6584 11.9652C98.443 11.5192 98.3352 11.0006 98.3352 10.4093C98.3352 9.81798 98.443 9.29683 98.6584 8.84584C98.8764 8.39234 99.1796 8.03906 99.5679 7.786C99.9588 7.53044 100.415 7.40266 100.936 7.40266C101.237 7.40266 101.534 7.45277 101.827 7.55299C102.12 7.65321 102.387 7.81607 102.627 8.04157C102.868 8.26456 103.059 8.56021 103.202 8.92852C103.345 9.29683 103.416 9.75033 103.416 10.289V10.6648H98.9666V9.89816H102.514C102.514 9.57244 102.449 9.2818 102.319 9.02624C102.191 8.77067 102.008 8.56898 101.77 8.42115C101.535 8.27333 101.257 8.19941 100.936 8.19941C100.583 8.19941 100.277 8.28711 100.019 8.46249C99.7634 8.63537 99.5667 8.86087 99.4289 9.13898C99.2911 9.4171 99.2222 9.71525 99.2222 10.0335V10.5446C99.2222 10.9805 99.2973 11.3501 99.4477 11.6533C99.6005 11.9539 99.8122 12.1832 100.083 12.341C100.353 12.4964 100.668 12.5741 101.026 12.5741C101.259 12.5741 101.47 12.5415 101.658 12.4763C101.848 12.4087 102.012 12.3085 102.15 12.1757C102.288 12.0404 102.394 11.8725 102.469 11.6721L103.326 11.9126C103.236 12.2032 103.084 12.4588 102.871 12.6793C102.659 12.8973 102.395 13.0676 102.082 13.1904C101.769 13.3107 101.417 13.3708 101.026 13.3708ZM107.862 13.2505V5.55358H110.553C111.09 5.55358 111.532 5.64628 111.88 5.83169C112.228 6.0146 112.488 6.26139 112.658 6.57208C112.828 6.88025 112.914 7.22226 112.914 7.59809C112.914 7.92882 112.855 8.20192 112.737 8.41739C112.622 8.63287 112.469 8.80324 112.278 8.92852C112.091 9.0538 111.886 9.1465 111.666 9.20663V9.2818C111.901 9.29683 112.138 9.37951 112.376 9.52985C112.614 9.68018 112.813 9.89565 112.974 10.1763C113.134 10.4569 113.214 10.8001 113.214 11.206C113.214 11.5919 113.127 11.9389 112.951 12.2471C112.776 12.5553 112.499 12.7996 112.121 12.98C111.742 13.1604 111.25 13.2505 110.644 13.2505H107.862ZM108.795 12.4237H110.644C111.252 12.4237 111.685 12.306 111.94 12.0704C112.198 11.8324 112.327 11.5443 112.327 11.206C112.327 10.9455 112.261 10.7049 112.128 10.4845C111.995 10.2615 111.806 10.0836 111.561 9.95077C111.315 9.81548 111.024 9.74783 110.689 9.74783H108.795V12.4237ZM108.795 8.93604H110.523C110.804 8.93604 111.057 8.88092 111.283 8.77067C111.511 8.66043 111.691 8.50509 111.824 8.30464C111.959 8.1042 112.027 7.86868 112.027 7.59809C112.027 7.25984 111.909 6.97296 111.673 6.73744C111.438 6.49941 111.065 6.3804 110.553 6.3804H108.795V8.93604Z" fill="black"/>
<path d="M318.634 122.313H254.378V136.298H318.634V122.313Z" fill="#2EE040"/>
<path d="M265.516 133.447V125.75H268.116C268.718 125.75 269.211 125.853 269.597 126.058C269.983 126.261 270.269 126.54 270.454 126.896C270.639 127.252 270.732 127.657 270.732 128.11C270.732 128.564 270.639 128.966 270.454 129.317C270.269 129.667 269.984 129.943 269.601 130.143C269.217 130.341 268.728 130.44 268.131 130.44H266.027V129.598H268.101C268.512 129.598 268.843 129.538 269.093 129.418C269.346 129.298 269.529 129.127 269.642 128.907C269.757 128.684 269.815 128.418 269.815 128.11C269.815 127.802 269.757 127.533 269.642 127.302C269.527 127.072 269.343 126.894 269.09 126.768C268.837 126.641 268.502 126.577 268.086 126.577H266.448V133.447H265.516ZM269.139 129.989L271.033 133.447H269.95L268.086 129.989H269.139ZM274.448 133.567C273.927 133.567 273.47 133.443 273.076 133.195C272.685 132.947 272.38 132.6 272.159 132.154C271.941 131.708 271.832 131.187 271.832 130.591C271.832 129.989 271.941 129.464 272.159 129.016C272.38 128.567 272.685 128.219 273.076 127.971C273.47 127.723 273.927 127.599 274.448 127.599C274.969 127.599 275.425 127.723 275.816 127.971C276.209 128.219 276.515 128.567 276.733 129.016C276.954 129.464 277.064 129.989 277.064 130.591C277.064 131.187 276.954 131.708 276.733 132.154C276.515 132.6 276.209 132.947 275.816 133.195C275.425 133.443 274.969 133.567 274.448 133.567ZM274.448 132.77C274.844 132.77 275.17 132.669 275.425 132.466C275.681 132.263 275.87 131.996 275.993 131.666C276.115 131.335 276.177 130.977 276.177 130.591C276.177 130.205 276.115 129.845 275.993 129.512C275.87 129.179 275.681 128.909 275.425 128.704C275.17 128.499 274.844 128.396 274.448 128.396C274.052 128.396 273.726 128.499 273.471 128.704C273.215 128.909 273.026 129.179 272.903 129.512C272.781 129.845 272.719 130.205 272.719 130.591C272.719 130.977 272.781 131.335 272.903 131.666C273.026 131.996 273.215 132.263 273.471 132.466C273.726 132.669 274.052 132.77 274.448 132.77ZM282.056 131.087V127.674H282.943V133.447H282.056V132.47H281.996C281.86 132.763 281.65 133.012 281.364 133.218C281.079 133.421 280.718 133.522 280.282 133.522C279.921 133.522 279.6 133.443 279.32 133.285C279.039 133.125 278.819 132.884 278.658 132.564C278.498 132.241 278.418 131.833 278.418 131.342V127.674H279.305V131.282C279.305 131.703 279.422 132.039 279.658 132.289C279.896 132.54 280.199 132.665 280.567 132.665C280.788 132.665 281.012 132.609 281.24 132.496C281.471 132.383 281.664 132.21 281.819 131.977C281.977 131.744 282.056 131.448 282.056 131.087ZM287.078 127.674V128.426H284.086V127.674H287.078ZM284.958 126.291H285.845V131.793C285.845 132.044 285.881 132.232 285.954 132.357C286.029 132.48 286.124 132.563 286.24 132.605C286.357 132.645 286.481 132.665 286.612 132.665C286.709 132.665 286.79 132.66 286.852 132.65C286.915 132.638 286.965 132.628 287.003 132.62L287.183 133.417C287.123 133.439 287.039 133.462 286.931 133.485C286.823 133.51 286.687 133.522 286.522 133.522C286.271 133.522 286.025 133.468 285.785 133.361C285.547 133.253 285.349 133.089 285.191 132.868C285.036 132.648 284.958 132.37 284.958 132.034V126.291ZM290.77 133.567C290.214 133.567 289.734 133.444 289.331 133.199C288.93 132.951 288.621 132.605 288.403 132.162C288.187 131.716 288.079 131.197 288.079 130.606C288.079 130.014 288.187 129.493 288.403 129.042C288.621 128.589 288.924 128.235 289.312 127.982C289.703 127.727 290.159 127.599 290.68 127.599C290.981 127.599 291.278 127.649 291.571 127.749C291.864 127.85 292.131 128.012 292.371 128.238C292.612 128.461 292.804 128.757 292.946 129.125C293.089 129.493 293.161 129.947 293.161 130.485V130.861H288.711V130.095H292.259C292.259 129.769 292.193 129.478 292.063 129.223C291.935 128.967 291.752 128.765 291.514 128.618C291.279 128.47 291.001 128.396 290.68 128.396C290.327 128.396 290.021 128.484 289.763 128.659C289.508 128.832 289.311 129.057 289.173 129.335C289.035 129.614 288.966 129.912 288.966 130.23V130.741C288.966 131.177 289.041 131.547 289.192 131.85C289.345 132.15 289.556 132.38 289.827 132.537C290.098 132.693 290.412 132.77 290.77 132.77C291.003 132.77 291.214 132.738 291.402 132.673C291.592 132.605 291.756 132.505 291.894 132.372C292.032 132.237 292.138 132.069 292.213 131.868L293.07 132.109C292.98 132.4 292.829 132.655 292.616 132.876C292.403 133.094 292.14 133.264 291.826 133.387C291.513 133.507 291.161 133.567 290.77 133.567ZM303.8 128.155H302.868C302.813 127.887 302.717 127.652 302.579 127.449C302.444 127.246 302.278 127.075 302.083 126.938C301.89 126.797 301.676 126.692 301.44 126.622C301.205 126.552 300.959 126.517 300.703 126.517C300.237 126.517 299.815 126.634 299.437 126.87C299.061 127.105 298.762 127.452 298.539 127.911C298.318 128.37 298.208 128.932 298.208 129.598C298.208 130.265 298.318 130.827 298.539 131.286C298.762 131.744 299.061 132.091 299.437 132.327C299.815 132.563 300.237 132.68 300.703 132.68C300.959 132.68 301.205 132.645 301.44 132.575C301.676 132.505 301.89 132.401 302.083 132.263C302.278 132.123 302.444 131.951 302.579 131.748C302.717 131.543 302.813 131.307 302.868 131.042H303.8C303.73 131.435 303.602 131.787 303.417 132.098C303.232 132.408 303.001 132.673 302.725 132.891C302.45 133.106 302.14 133.27 301.797 133.383C301.456 133.496 301.092 133.552 300.703 133.552C300.047 133.552 299.463 133.392 298.952 133.071C298.441 132.75 298.039 132.294 297.746 131.703C297.453 131.112 297.306 130.41 297.306 129.598C297.306 128.787 297.453 128.085 297.746 127.494C298.039 126.903 298.441 126.447 298.952 126.126C299.463 125.805 300.047 125.645 300.703 125.645C301.092 125.645 301.456 125.701 301.797 125.814C302.14 125.927 302.45 126.092 302.725 126.31C303.001 126.525 303.232 126.789 303.417 127.099C303.602 127.407 303.73 127.759 303.8 128.155Z" fill="black"/>
</g>
<defs>
<clipPath id="clip0_2_2">
<rect width="318.634" height="205.846" fill="white"/>
</clipPath>
</defs>
</svg>
