<svg xmlns="http://www.w3.org/2000/svg" width="519.2" height="391" viewBox="0 0 768 576"><clipPath id="a"><path transform="scale(.24)" d="M0 0h3200v2431.25H0z" fill-rule="evenodd"/></clipPath><g clip-path="url(#a)" fill="#fff"><path d="M0 0h768v583.5H0z"/><path d="M0 0h768v576H0z"/></g><clipPath id="b"><path transform="scale(.24)" d="M0 0h3200v2400H0z" fill-rule="evenodd"/></clipPath><g clip-path="url(#b)"><path d="M0 0h768v576H0z" fill="#fff"/></g><clipPath id="c"><path transform="scale(.24)" d="M400 1.202h2400v2397.544H400z" fill-rule="evenodd"/></clipPath><g clip-path="url(#c)"><path d="M270.66 281.793c.388-6.755 1.018-13.55 2.24-20.18-2.145-.436-4.335-.887-6.548-1.338-2.294 6.404-3.578 13.159-4.344 20.04 2.88.523 5.763 1.01 8.652 1.478zm-.257 5.142c-2.96-.473-5.921-.974-8.873-1.505-.482 6.259-.64 12.572-.806 18.782 3.79.752 6.84 1.469 8.936 2.14.099.032.207.063.31.1-.288-5.453.131-11.068.293-15.885.046-1.208.09-2.42.14-3.632zm-33.662-7.138a5043.949 5043.949 0 0 1-4.24 19.909c8.805 1.216 16.704 2.415 23.135 3.555.19-6.223.383-12.523.888-18.769-6.656-1.298-13.267-2.803-19.783-4.695zm19.945-21.486c-1.996 6.624-3.889 13.275-6.976 19.498a266.79 266.79 0 0 0 7.314 1.56c.784-6.886 2.06-13.659 4.272-20.121-1.523-.311-3.064-.622-4.61-.937zm-29.8-5.926c-2.578 15.245-7.183 30.106-10.329 45.207 3.704.473 7.328.942 10.829 1.415 1.667-7.71 3.312-15.425 4.934-23.14.284-1.334 1.897-2.19 3.164-1.798 3.055.942 6.133 1.771 9.224 2.55.05-.247.122-.495.253-.747 3.019-5.895 4.808-12.253 6.682-18.58a4424.72 4424.72 0 0 0-24.757-4.907zm-18.197-3.47c-.635 15.713-2.636 31.517-5.768 46.992 2.884.347 5.741.698 8.558 1.05 3.163-15.214 7.755-30.188 10.382-45.546-4.533-.87-8.94-1.707-13.172-2.496zm-19.611-3.51c.595 7.138.27 14.474-.568 21.81 4.502.446 8.995.95 13.474 1.618a279.86 279.86 0 0 0 1.59-20.869c-5.25-.96-10.13-1.825-14.496-2.56zm-5.277-.866c-4.146-.658-7.638-1.149-10.265-1.433-.546-.054-1.1-.112-1.663-.166-1.032 7.462-1.262 15.096-1.32 22.626 4.123.396 8.246.748 12.37 1.122.828-7.264 1.486-14.803.878-22.149zm4.056 27.737c-1.041 7.25-2.474 14.451-3.925 21.41 4.641.526 9.278 1.067 13.87 1.612a302.956 302.956 0 0 0 3.565-21.396c-4.484-.68-8.995-1.185-13.51-1.626zm-19.891-1.82c-1.384-.14-2.578-1.078-2.573-2.57.036-8.449.27-17.006 1.388-25.406a466.68 466.68 0 0 0-14.267-.924c-.46 16.15-2.263 32.256-2.673 48.402 9.211.97 19.008 2.028 28.908 3.141 1.38-7.08 2.614-14.186 3.551-21.337-4.78-.424-9.562-.82-14.334-1.307zm-21.829-6.499c.527-7.544 1.032-15.092 1.24-22.649-3.29-.144-6.602-.275-9.883-.383-.261 7.206-.55 14.411-.77 21.617 3.136.5 6.272.964 9.413 1.415zm-9.558 3.736c-.175 6.953-.266 13.906-.175 20.864 2.69.275 5.461.563 8.305.86.184-6.79.617-13.572 1.081-20.354a795.853 795.853 0 0 1-9.21-1.37zm-18.403-27.259c-2.758-.05-5.34-.09-7.715-.122-.023 2.218-.032 4.435.004 6.656.05 2.758-.676 9.333 1.145 11.672.113.148.207.297.284.45 2.6.374 5.209.65 7.832.654.117-6.503-.253-12.96-1.55-19.31zm-12.744 10.27c-.163-3.483-.149-6.967-.113-10.45C99.574 240.2 96 240.2 96 240.2v16.385c3.384.329 6.755.946 10.13 1.554-.568-2.442-.59-5.11-.698-7.435zM96 261.524v23.018s8.431.797 21.603 2.109c.721-7.228 1.56-14.51 1.942-21.766-7.845-.085-15.722-2.658-23.545-3.361zm36.357-20.76c-3.06-.087-6.057-.163-8.932-.226 2.84 15.294.726 31.062-.757 46.618 2.718.274 5.584.563 8.585.87-.19-15.76.536-31.509 1.104-47.263zm145.572 21.886c-1.605 8.702-2.114 17.701-2.47 26.488-.216 5.394-.978 12.424-.392 18.774 3.93 1.032 8.296 1.991 12.884 2.88-1.154-15.656-5.205-31.275-3.7-46.84-2.05-.423-4.168-.86-6.322-1.302zm15.19 49.096c8.18 1.442 16.755 2.668 24.55 3.65-2.64-6.7-6.07-13.162-8.318-20.007-2.96-9-4.52-18.364-6.638-27.588-3.947-.83-8.48-1.776-13.437-2.803-1.478 15.488 2.74 31.13 3.843 46.748zm23.294-12.081c2.244 5.534 4.84 10.874 6.858 16.417 12.803 1.514 22.347 2.302 22.347 2.302l-12.42-21.968c-5.695.59-11.364 1.27-16.785 3.249zm14.06-8.066-11.519-20.373s-4.02-.856-10.73-2.267c1.893 8.706 3.461 17.503 6.377 25.911 5.142-1.95 10.486-2.694 15.871-3.271zm207.627 28.11c-7.656-3.38-18.615-6.886-30.922-10.279-1 3.11-2.068 6.192-3.51 9.13 13.757 2.677 27.443 5.565 41.048 9.107a74.107 74.107 0 0 0 2.839-4.461c-3.538-1.131-6.724-2.294-9.455-3.497zm-61.182-17.876c-1.6 3.573-3.312 7.092-5.263 10.495 5.083 1.05 10.17 2.104 15.272 3.055 3.87.721 7.733 1.451 11.595 2.186.05-.217.121-.433.238-.654 1.487-2.807 2.524-5.8 3.484-8.823-8.157-2.168-16.773-4.277-25.326-6.26zm-5.087-1.168a1425.061 1425.061 0 0 0-30.932-6.642c-3.285 4.033-6.462 8.152-9.612 12.293 11.843.492 23.451 2.582 35.032 4.921 2.06-3.42 3.853-6.962 5.512-10.572zm48.51 41.251c-12.325-2.758-25.402-8.67-38.227-6.98a2.67 2.67 0 0 1-.739-.014 473.366 473.366 0 0 0-2.505 8.278l87.075 21.662c1.316-3.753 2.519-7.548 3.695-11.356-16.39-4.078-32.82-7.9-49.299-11.59zm-.063-5.272c16.984 3.907 33.964 7.733 50.876 11.942 1.866-6.08 3.758-12.145 6.025-18.07-8.9-1.776-17.304-3.714-24.577-5.787a74.534 74.534 0 0 1-4.597 7.165c-.68.942-1.708 1.496-2.902 1.18-18.971-5.024-38.11-8.886-57.424-12.342-.419-.077-.842-.158-1.266-.234-.018.054-.027.108-.05.17-1.194 2.98-2.266 5.994-3.29 9.032 12.542-1.298 25.205 4.181 37.205 6.944zm103.037 27.002c-1.7 4.713-3.141 9.53-4.416 14.388l35.554 8.846 6.08-17.088c-12.443-1.811-24.866-3.799-37.218-6.146zm-15.051-3.065c-.045.068-.072.135-.122.199-2.749 3.659-4.245 8.458-5.444 13.226l11.208 2.789c1.248-4.768 2.658-9.5 4.299-14.145a571.776 571.776 0 0 1-9.941-2.069zm-17.507-4.15c-.04.05-.068.104-.113.153-3.01 3.321-4.772 8.134-6.124 12.902l13.203 3.285c1.195-4.732 2.632-9.531 5.147-13.393a483.754 483.754 0 0 1-12.113-2.947zm-5.385-1.429a385.971 385.971 0 0 1-9.977-2.825c-1.424 4.664-2.857 9.328-4.457 13.929l8.652 2.15c1.365-4.696 3.082-9.441 5.782-13.254zm69.068-13.005c-2.902 6.643-3.876 13.911-6.214 20.765 4.682.74 9.364 1.451 14.05 2.132l7.57-21.265s-5.947-.564-15.406-1.632zm-19.35-2.33a2.413 2.413 0 0 1-.42 1.069c-3.848 5.682-6.926 11.747-9.485 18.038a746.216 746.216 0 0 0 17.894 3.16c2.398-6.765 3.506-13.876 6.093-20.545-4.25-.496-9-1.073-14.082-1.721zm-55.203 2.25a2.587 2.587 0 0 1-1.068-.663 387.976 387.976 0 0 0-1.915 6.007c14.195 4.24 28.602 7.638 43.121 10.513a117.22 117.22 0 0 1 2.73-6.322c-14.613-.077-29.164-4.984-42.868-9.536zm1.366-4.958c13.902 4.615 28.714 9.73 43.535 9.342.185-.005.36.009.523.036a93.083 93.083 0 0 1 4.385-7.372c-14.722-1.947-31.63-4.457-47.411-7.454a147.195 147.195 0 0 0-1.965 5.318c.288-.01.6.018.933.13zm-99.937-17.43c-17.858-3.506-35.536-7.963-53.85-8.17-4.002 5.344-7.958 10.73-11.95 16.083l58.36 14.52c2.209-7.571 4.511-15.101 7.44-22.433zm-46.063-26.646a1441.968 1441.968 0 0 0-23.744-4.56 1075.408 1075.408 0 0 0-36.442 26.97c1.343 1.68 2.122 2.614 2.122 2.614l32.968 8.201c8.332-11.104 16.43-22.387 25.096-33.225zm-26.578-8.832-2.357-4.227c-3.42 2.064-7.012 3.88-10.563 5.533-6.128 2.857-13.244 6.098-20.161 5.94-6.814-.158-11.978-6.241-15.795-11.23a63.876 63.876 0 0 1-1.654-2.28c-2.379 1.523-4.78 3.001-7.246 4.366 7.837 11.929 15.899 22.613 20.995 29.134a1089.67 1089.67 0 0 1 36.78-27.236zm-33.081 2.104c6.106.554 13.532-3.285 18.845-5.85 3.123-1.504 6.332-3.117 9.382-4.956-2.888-5.164-6.453-11.54-10.35-18.494-6.039 3.366-12.177 6.588-18.238 10.045-4.411 2.514-8.634 5.344-12.865 8.138 3.29 4.88 7.746 10.617 13.226 11.117zm-5.728-43.873c-2.532 1.68-5.056 3.361-7.588 5.042 1.703 5.493 5.97 9.973 9.643 14.245.27.315.45.649.55.987.059-.032.113-.068.167-.1 2.636-1.505 5.3-2.956 7.962-4.398-3.433-5.358-7.399-10.36-10.734-15.776zm-24.33 16.173c-2.117 1.41-4.24 2.816-6.358 4.231 2.736 5.074 5.791 10.198 8.945 15.173 2.465-1.338 4.863-2.798 7.233-4.313-3.19-5.096-6.11-10.382-9.82-15.091zm14.038 12.334c2.87-1.902 5.728-3.83 8.643-5.66-3.88-4.507-8.206-9.225-10.364-14.862-2.686 1.784-5.372 3.573-8.062 5.362 3.632 4.79 6.53 10.108 9.783 15.16zm25.56-15.182a663.85 663.85 0 0 0 5.849-3.186c-3.2-5.696-6.557-11.671-9.905-17.597-2.303 1.54-4.614 3.069-6.926 4.605 3.398 5.565 7.471 10.68 10.982 16.178zm-53.107-8.143c1.334 3.443 2.947 7.016 4.768 10.648 13.902-9.283 27.853-18.485 41.755-27.768-1.302-2.293-2.587-4.564-3.857-6.804-12.875 9.652-29.377 14.627-42.666 23.924zm28.038-21.603c-4.862-8.369-10.004-17.075-12.595-26.475-3.83 2.271-7.638 4.583-11.437 6.904 2.217 3.398 4.502 6.732 6.998 9.882.807 1.019 1.14 2.663 0 3.637-4.912 4.209-10.472 7.363-16.182 10.288.852 2.343 1.496 4.492 1.861 6.367.379 1.956.929 4.01 1.6 6.129 9.495-6.147 20.49-10.45 30.463-15.926a2.659 2.659 0 0 1-.708-.806zm-7.679-27.971c2.465 9.017 7.454 17.35 12.122 25.375.208.36.316.712.352 1.05 2.573-1.564 5.051-3.24 7.381-5.092-5.921-10.4-11.234-19.634-14.794-25.596a409.916 409.916 0 0 0-5.628 3.204c.247.275.45.622.567 1.059zm2.389-8.661c-.343-.54-.64-1.005-.897-1.388-4.033-6.047-9.125-12.91-15.939-23.811-4.776 2.965-9.585 5.885-14.55 8.53-.708.379-1.43.735-2.146 1.104-.414.406-.95.69-1.532.789-1.825.928-3.654 1.834-5.488 2.744 7.845 6.967 13.397 15.907 19.03 24.767 7.115-4.349 14.244-8.67 21.522-12.735zm-17.102 28.327c-9.382-12.605-16.15-27.665-28.344-37.835-.023-.018-.036-.041-.059-.059-2.663 1.334-5.317 2.69-7.918 4.128 9.937 15.375 18.693 30.242 23.587 41.539 4.443-2.276 8.8-4.718 12.734-7.773zM319.72 168.67c5.304-2.785 10.423-5.885 15.51-9.035a425.616 425.616 0 0 1-5.524-9.396c-5.178 3.186-10.346 6.386-15.538 9.55 1.654 3.077 3.24 6.276 5.552 8.881zm-9.95-6.219c-5.371 3.236-10.77 6.417-16.25 9.46a926.563 926.563 0 0 1 5.052 7.61c5.367-2.983 10.919-5.664 16.444-8.44-2.082-2.632-3.641-5.673-5.246-8.63zm-25.032-16.389c-1.785 1.798-3.497 3.655-5.241 5.48a1123.266 1123.266 0 0 1 11.13 16.092c12.424-6.877 24.452-14.439 36.556-21.874-3.907-7.016-8.238-15.177-13.055-24.82-2.663-5.318-5.899-10.703-9.49-16.043-7.963 4.28-16.056 8.332-23.631 13.284 1.964 2.939 3.843 5.913 5.56 8.91 2.028 3.532 3.695 7.958 3.2 12.121-.383 3.19-2.898 4.71-5.03 6.85zm-6.818-50.44c-3.146 1.885-6.363 3.655-9.684 5.242 3.343 4.209 6.687 8.589 9.86 13.077 3.38-2.226 6.867-4.263 10.395-6.219-4.114-3.429-7.376-7.791-10.571-12.1zm14.483 8.725c.329.243.572.532.748.838 2.843-1.518 5.7-3.019 8.544-4.542a254.495 254.495 0 0 0-10.522-13.735 260.77 260.77 0 0 1-8.896 6.016c2.992 4.082 6.097 8.413 10.126 11.423zm-4.52-21.387c-7.638-9.003-15.596-17.385-22.766-24.519-8.31 4.908-16.547 9.928-24.478 15.385 9.188 6.38 17.142 14.348 24.275 22.946 8.13-3.803 15.633-8.675 22.97-13.812zm-7.44 60.11c3.02-3.132 4.903-3.655 3.83-8.328-1.022-4.484-4.226-8.273-6.84-11.928-12.1-16.93-23.518-34.167-41.255-45.847a200.2 200.2 0 0 0-8.445 6.421c9.206 11.284 18.178 22.311 19.53 24.118 1.19 1.586 14.042 18.404 29.224 39.782 1.32-1.402 2.613-2.83 3.956-4.218zm-44.08-79.636c-1.411-1.658-3.024-3.393-4.146-5.326-5.525 3.474-11 7.066-16.538 10.531 2.672 3.267 5.709 6.98 8.814 10.78 5.097-4.102 10.396-7.91 15.822-11.55-1.397-1.415-2.69-2.957-3.952-4.435zm.5-7.606c.324.486.68.955 1.04 1.42a80.07 80.07 0 0 0 2.858 3.433c1.257 1.442 2.537 2.952 3.938 4.294 5.462-3.532 11.027-6.926 16.637-10.251a467.783 467.783 0 0 0-8.647-8.202c-5.502 2.632-10.829 5.67-16.088 8.873.108.176.212.36.262.433zm11.752-13.033c-5.038-4.551-8.179-7.183-8.179-7.183l-34.19 21.5s2.452 2.997 6.161 7.525c12.01-7.457 23.699-15.582 36.208-21.842zm348.491 103.447 12.97 2.605c0-1.843-.01-3.303 0-4.763.044-7.643-1.055-15.516.432-22.87 1.915-9.468-1.46-15.763-8.76-21.738-6.832 15.299-3.673 30.922-4.642 46.766zm-63.881-.626c5.362 13.275 10.607 26.258 16.083 39.8 5.137-1.74 10.689-3.614 16.407-5.552-2.235-14.934-4.385-29.332-6.588-44.08l-25.902 9.832zm-21.072-67.514c-.802.528-1.077 2.727-.77 3.943 2.96 11.654 6.06 23.275 9.215 34.875.478 1.762 1.437 3.388 2.37 5.529 4.944-3.308 9.486-6.088 13.677-9.324 1.144-.887 2.086-3.388 1.685-4.722-3.826-12.767-7.958-25.434-12.162-38.65-4.655 2.716-9.455 5.348-14.015 8.35zM491.42 61.718c-5.043 2.767-10.275 5.29-14.934 8.612-2.217 1.577-4.516 4.7-4.642 7.237-.32 6.237-.171 12.712 1.19 18.778 1.956 8.688 2.807 8.71 11.076 5.245 1.041-.437 2.114-.788 2.997-1.113 12.613 31.504 24.997 62.44 37.411 93.434 6.625-2.307 12.695-4.42 18.535-6.458-2.303-14.528-8.413-26.794-15.281-38.844-2.979-5.227-1.803-6.872 3.776-8.837 7.963-2.803 15.89-5.727 23.726-8.873 1.478-.59 3.51-2.46 3.483-3.704-.162-7.255-.86-14.501-1.41-22.22l-36.875 28.173c-.847-1.415-1.397-2.014-1.596-2.717-4.772-16.566-9.44-33.167-14.293-49.71-1.285-4.389 1.086-6.462 4.317-8.233 10.77-5.907 21.562-11.779 32.337-17.678 2.235-1.221 4.43-2.514 7.323-4.16-4.462-2.942-8.112-5.087-11.455-7.633-3.655-2.78-6.737-2.875-10.892-.437-11.415 6.692-23.185 12.775-34.793 19.138zm80.19 26.33c6.917 2.168 7.755 1.488 12.594-8.097L570.776 67.82c-1.01 5.993-2.145 10.842-2.456 15.74-.095 1.474 1.807 4.025 3.29 4.489zm11.59 31.054c2.92.32 5.497.604 7.453.82 2.357-8.382 4.484-15.678 6.399-23.023.32-1.23.167-3.05-.554-4.006-2.28-3.01-4.93-5.741-7.895-9.094-6.494 11.811-5.3 23.352-5.403 35.303zm-107.178-54.59c17.322-9.337 33.477-18.047 50.502-27.222-6.958-5.264-13.145-8.337-20.851-4.43-2.38 1.208-5.079 1.762-7.57 2.771-12.501 5.065-18.224 15.344-22.081 28.881zm95.29 75.855c1.09 3.817 3.704 6.12 7.219 4.637V94.317c-3.812-.333-7.21-.63-11.257-.982 0 10.125-.473 19.665.167 29.128.41 6.034 2.195 12.037 3.87 17.904zm-31.774 87.287c13.104-3.294 25.276-6.354 37.903-9.526-3.759-11.807-7.265-22.83-10.802-33.937-13.393 4.763-26.592 9.454-39.728 14.123 4.53 10.522 8.58 19.936 12.627 29.34zM275.03 54.166c2.361.586 5.493 2.438 6.958 1.55 10.256-6.255 20.17-13.068 30.197-19.706-.01-.753-.018-1.5-.023-2.253-2.749-.464-6.331-2.267-8.102-1.163-9.892 6.17-19.346 13.041-28.953 19.67-.023.636-.05 1.27-.077 1.902zm123.797-.397c-2.311-.716-4.614-1.473-6.917-2.203-.405 3.077-.833 6.11-1.347 9.13-2.92 17.191-5.38 34.495-9.225 51.489-.883 3.92-.743 7.534-.103 11.013 6.561-22.933 9.459-46.92 17.592-69.429zm4.94 1.424c-9.045 25.069-11.595 51.963-19.977 77.189.892 2.695 1.802 5.394 2.451 8.174 14.92-26.276 21.522-54.562 25.1-83.83-2.555-.334-5.074-.88-7.575-1.533zm8.16-3.582c.284-2.555.555-5.12.798-7.693-7.206-.63-13.222-1.158-19.585-1.716-.193 1.41-.374 2.803-.554 4.19 6.39 2.006 12.74 4.363 19.341 5.219zm-24.51-29.679c-6.615 2.19-13.14 4.353-19.652 6.512.172.248.307.545.383.906 2.52 11.734 7.31 22.874 10.113 34.545.266 1.104-.172 2.32-1.181 2.902-5.2 2.983-10.14 6.71-15.42 9.666 1.595 2.442 3.145 4.912 4.591 7.435 4.187 7.31 7.48 15.128 11.262 22.924 5.601-22.495 11.509-71.037 9.904-84.89zm-35.104 40.72c2.136 3.203 4.34 6.367 6.503 9.553 4.826-2.623 9.35-6.012 13.988-8.85-1.05-4.056-2.312-8.058-3.606-12.046-6.097 3.078-11.558 7.102-16.885 11.342zm15.277-16.3c-1.663-5.16-3.263-10.333-4.398-15.632a2.67 2.67 0 0 1-.05-.749c-8.841 2.93-17.692 5.859-26.745 8.855 4.813 7.206 8.995 13.456 13.06 19.549 5.69-4.543 11.544-8.85 18.133-12.023zm7.985-27.088c13.086-3.875 13.082-3.902 10.279-17.813-.068-.333-.356-.622-.68-1.163h-26.633l7.679 21.37c3.105-.79 6.264-1.479 9.355-2.394zM335.91 33.297c7.22-2.609 14.398-5.349 21.441-8.4 1.15-.5 2.483-3.06 2.132-4.145a159.71 159.71 0 0 0-6.687-17.106c-.586-1.262-3.074-2.61-4.453-2.398-12.626 1.924-25.208 4.187-37.636 6.323 7.458 8.859 14.24 17.038 21.229 25.037.703.81 2.843 1.1 3.974.69zm87.617 60.759c.612-9.657 1.216-19.18 1.906-29.976-2.546-.199-4.637-.36-6.791-.528-1.055 5.99-1.965 11.27-2.92 16.548-1.131 6.259 1.397 10.968 7.805 13.956zm27.06-84.66c.018-1.073-1.375-2.916-2.402-3.146-7.242-1.631-14.555-2.933-22.608-4.484-.924 9.87-1.767 18.882-2.533 27.034 9.121 2.19 17.219 4.137 26.588 6.39.392-9.4.829-17.593.955-25.794zM396.354 36.55c5.214.829 10.496 1.23 16.534 1.856V.424H392.47c.478 11.252.87 22.14 1.5 33.013.064 1.122 1.416 2.96 2.384 3.114zm26.245-2.42c-.77 6.602-1.316 12.491-2.176 18.304 1.032.906 1.05 2.745.067 3.808.586 1.595 2.096 2.285 4.421 2.362 6.512.211 13.028.477 19.54.423 1.054-.009 2.87-1.428 3.014-2.393.798-5.245 1.176-10.553 1.69-15.731-9-2.294-17.444-4.448-26.556-6.773zm-2.366 107.448c1.862.284 4.94-1.117 5.953-2.704 4.425-6.944 8.3-14.244 12.451-21.549-8.967-7.71-17.354-14.925-25.352-21.797l-15.507 41.494c7.481 1.582 14.916 3.412 22.455 4.556zm84.868-116.722c-5.205-1.866-10.41-3.736-15.642-5.61-11.919 5.434-23.595 11.378-35.077 17.714-.536 7.953-1.077 15.952-1.636 24.257 14.939-17.016 31.96-28.453 52.503-34.54l-.148-1.821zm-22.505-8.076c-8.593-3.086-17.286-6.21-26.213-9.413-.54 7.999-1.063 15.758-1.59 23.51 9.134-4.971 18.394-9.69 27.803-14.097zm49.083 53.427c3.159 12.33 6.723 24.55 10.464 37.858 5.515-4.362 10.053-7.778 14.357-11.473 1.176-1.005 2.194-2.78 2.347-4.3.951-9.395 1.7-18.813 2.38-28.231.37-5.151-4.867-9.59-8.981-7.657-6.057 2.853-12.122 5.723-17.949 9-1.397.784-2.96 3.465-2.618 4.803zM413.023 500.2c-6.29-7.602-12.063-14.573-18.034-21.783-4.714 2.798-9.788 5.804-15.786 9.364 8.693 7.963 16.913 15.493 25.502 23.356 3.492-4.592 6.218-8.179 8.318-10.937zm30.265-2.848c2.077-6.944.28-14.343-6.598-19.188-9.17 12.019-18.219 23.875-27.42 35.938 6.218 5.318 12.45 10.644 20.44 17.485 5.011-12.343 10.22-23.014 13.578-34.235zm51.98 28.49c1.528.815 4.763.535 5.998-.578 3.55-3.19 6.48-7.066 9.562-10.571a247172.124 247172.124 0 0 0-30.872-34.316c-7.346 5.133-14.515 10.14-21.973 15.348 11.581 11.672 23.13 22.541 37.285 30.116zm-40.322-34.123a89796.93 89796.93 0 0 1 21.477-15.853c-9.36-12.514-17.98-24.212-26.872-35.703-1.23-1.596-3.717-2.456-5.8-3.114-6.358-2.01-12.752-3.943-19.232-5.498-2.528-.608-5.313-.13-7.98-.153.504 2.465.355 5.344 1.617 7.318 9.396 14.664 18.994 29.206 28.719 43.653 2.203 3.271 5.168 6.03 8.07 9.35zm-112.33-44.59c-3.27-5.452-5.88-9.8-8.422-14.046-15.434 8.734-30.156 17.07-45.554 25.785l8.184 12.55c15.857-8.413 30.773-16.321 45.793-24.289zm90.501 25.628c-3.055-4.416-6.08-8.778-9.161-13.235-7.783 5.488-15.21 10.725-23.577 16.628 5.07 6.755 10.026 13.357 15.682 20.887 6.295-8.968 11.63-16.556 17.056-24.28zm83.844 26.542c-11.973-12.627-25.221-24.1-34.707-38.989-6.043-9.48-12.654-18.593-19.071-27.966-3.06 1.38-5.98 2.69-9.143 4.11 18.863 25.992 38.98 50.466 61.051 73.164 7.237-5.141 6.999-4.911 1.87-10.319zM332.05 480.945c-1.437-.883-3.14-1.541-4.308-2.722-8.345-8.472-16.808-9.342-25.672.113 7.115 9.819 14.578 20.13 22.288 30.778 2.7-9.887 5.182-18.985 7.692-28.17zm89.473-25.646c-2.09-3.136-3.307-4.957-5.029-7.534-16.416 7.985-32.373 15.74-49.069 23.86 2.74 3.768 5.074 6.981 7.927 10.906 15.357-9.058 30.58-18.039 46.171-27.232zm-139.06 6.052a90041.774 90041.774 0 0 0-30.03 13.96l7.918 14.912c10.508-5.015 20.72-9.891 31.026-14.812-3.236-5.106-6.034-9.517-8.914-14.06zm336.847-308.357c7.854 4.276 15.84 8.3 23.784 12.41.433-.194.86-.392 1.293-.586-7.012-16.601-16.538-31.783-27.898-46.167-.78 10.27-.915 20.328-.622 30.377.04 1.38 1.965 3.164 3.443 3.966zm18.453 105.465c-8.31 1.979-17.58 10.013-26.997 24.474-2.02 3.096-.82 8.287-1.163 13.415 3.145 0 5.218.014 7.291 0 13.983-.094 14.05-.08 16.624-13.528 1.519-7.958 2.79-15.96 4.245-24.36zm-23.496-36.861v44.414c.581.036 1.167.077 1.753.117 9.981-8.476 19.967-16.948 30.111-25.564-10.198-6.58-18.9-15.61-31.864-18.967zm42.481 14.384c.18-.82.365-1.64.55-2.46-18.476-17.386-36.956-34.771-56.266-52.94-2.83 8.665-5.236 16.033-7.688 23.536.816.59 1.352 1.162 2.015 1.433 19.052 7.72 37.465 16.533 53.562 29.665 1.69 1.379 5.173.563 7.827.766zM527.984 480.71c-1.221-1.225-2.357-2.564-3.7-3.64-14.06-11.275-25.686-24.731-35.676-39.665-2.821-4.214-5.593-8.463-8.612-12.532-.586-.789-2.41-1.38-3.33-1.068-3.15 1.059-6.147 2.56-9.297 3.934 16.462 27.105 35.663 50.61 58.736 70.884 9.202-6.548 9.567-10.18 1.879-17.913zm100.022-167.17c1.072-3.547 1.365-7.327 2.01-11.261H609.66c-.365 4.538-.699 8.683-1.118 13.929 5.682.315 10.617.86 15.529.694 1.397-.045 3.501-1.92 3.934-3.362zm-18.165 8.467c-1.113.054-2.636 1.339-3.096 2.425-.491 1.171-.383 3.78.212 4.033 5.029 2.167 10.23 3.943 15.574 5.903l3.843-12.473c-6.29 0-11.423-.145-16.533.112zm-39.466 130.697c2.127-2.524 4.321-5.128 6.511-7.733-9.459-10.423-18.665-20.657-28.038-30.729-.676-.725-2.947-.892-3.862-.329-9.918 6.107-19.679 12.474-29.557 18.643-6.363 3.975-8.107 9.256-3.907 15.349 5.03 7.277 10.725 14.1 16.601 21.724 5.512-4.893 9.847-8.638 14.065-12.51 14.767-13.54 9.886-13.685 28.187-4.415zm14.925-21.58c1.446-2.3 1.054-3.313-1.177-5.386-5.083-4.727-9.138-10.54-13.938-15.6-2.01-2.123-4.668-4.494-7.331-4.926-3.736-.604-7.832.329-9.99 5.304 8.764 9.77 17.538 19.54 26.91 29.985 2.227-3.795 3.8-6.634 5.526-9.378zm26.397 2.933c3.975-11.586 7.544-21.978 11.37-33.117-8.17-1.442-15.1-2.668-22.505-3.975-2.1 7.674-4.001 14.502-5.795 21.356-.266 1.023-.455 2.762.09 3.19 5.241 4.096 10.644 7.98 16.84 12.546zm-16.596-38.214c-8.418-2.037-16.237-3.925-24.06-5.817-.392.5-.788 1-1.18 1.505 3.979 9.959 11.78 17.088 20.094 25.366 1.847-7.571 3.424-14.006 5.146-21.054zM371.935 532.66c-1.38-12.167-2.794-24.708-4.385-38.777-13.357 8.945-24.929 16.7-37.105 24.857l18.746 25.127c7.193-3.546 14.506-7.151 22.744-11.207zM201.808 511.2c3.722 2.848 7.07 6.958 11.266 8.188 4.123 1.212 9.391.27 13.573-1.293 1.748-.65 1.992-5.34 2.943-8.27h-27.3c-.162.46-.32.916-.482 1.375zm71.074-464.132c9.337-6.38 18.466-13.068 27.686-19.625.122-.594.248-1.19.37-1.789-3.384-.946-7.75-3.726-9.99-2.528-10.059 5.394-19.517 11.91-30.21 18.675 4.776 1.937 5.591 9.742 12.144 5.267zm157.657 505.505c-4.438 6.75-8.472 13.766-13.289 21.702 11.974-2.325 23.023-4.614 34.131-6.557 4.804-.838 7.76-3.271 9.067-7.773-7.647-3.299-14.957-6.178-22.01-9.594-3.676-1.78-6.173-.406-7.899 2.222zm-52.358-14.66c.198 2.299.338 3.79.46 5.282.887 10.838 1.77 21.67 2.653 32.504h20.765c1.501-.676 3.79-.942 4.38-2.091 4.484-8.68 8.63-17.53 13.015-26.596-14.245-3.141-27.53-6.07-41.273-9.098zm41.129 2.407c3.785.856 4.731-.626 5.164-3.34-17.435-15.235-34.64-30.26-50.989-44.549 1.104 11.33 2.406 23.384 3.38 35.46.297 3.678 2.631 4.245 5.322 4.79 12.378 2.52 24.802 4.85 37.123 7.639zm-163.548-4.123c-1.843.356-3.718.54-7.314 1.054 2.19 3.114 3.281 6.345 5.449 7.45 9.192 4.677 18.705 8.723 28.1 13 .28-.307.555-.618.835-.924-2.123-3.51-4.187-7.052-6.372-10.522-8.995-14.294-4.412-13.217-20.698-10.058zm-19.485-40.665c-.496 1.964-1.343 3.916-1.429 5.898-.324 7.422.36 14.966-.77 22.244-1.41 9.075.203 12.505 9.59 14.708-1.767-14.19-3.525-28.322-5.282-42.458l-2.11-.392zm103.6 54.932c-2.24-5.156-9.53-13.56-12.18-18.535-9.6-18.034-21.874-31.981-31.608-50.218-3.704 1.906-6.223 3.195-8.066 4.141 12.01 27.948 23.856 55.522 35.88 83.502 2.207-1.33 3.735-2.06 5.042-3.069 7.687-5.97 14.925-6.633 10.932-15.821zm-75.94-54.17c-.082.599-.298 1.058-.154 1.333 10.05 19.386 20.058 38.795 30.292 58.091 1.518 2.861 3.627 6.192 6.336 7.476 4.745 2.253 10.161 3.087 15.844 4.668-12.068-26.488-23.735-52.101-35.424-77.756-6.327 2.316-11.658 4.268-16.894 6.187zM330.3 570.49c11.342 3.298 34.239 4.745 34.239 4.745l-15.678-19.188-18.561 14.443zm21.59-22.086c5.817 9.504 11.266 18.4 16.714 27.295h8.075l-4.786-38.295c-7.223 3.97-13.447 7.395-20.003 11zm265.074-113.009c10.68 5.85 10.888 5.795 16.719-4.344 1.14-1.987 2.316-3.961 3.352-6.002 2.975-5.845 5.886-11.721 9.054-18.048a26758.63 26758.63 0 0 0-17.755-4.281l-11.37 32.675zm54.04-171.569c-.784-9.634-1.933-10.549-12.374-9.188 4.501 8.27 8.936 16.425 13.374 24.582v-10.383c-.342-1.667-.86-3.325-1-5.01zm-5.367 18.738c-3.776-8.517-7.692-16.976-11.572-25.452-.68.09-1.366.185-2.046.275-.784 25.974-9.59 50.006-18.62 74.295l13.06 2.821c6.493-16.641 12.77-32.68 18.975-48.74.37-.964.59-2.32.203-3.2zM590.594 433.16c-5.254 7.683-10.247 15.542-15.555 23.712 8.9 5.692 18.196 11.64 28.042 17.935 6.75-8.841 13.222-17.327 19.981-26.181-9.914-5.773-19.11-11.23-28.452-16.43-.924-.514-3.412.09-4.016.964zm-110.36 92.276c-3.41-2.92-6.484-6.233-9.701-9.378-.01-.005-.018-.009-.023-.018-.878 3.244-1.307 6.7-2.735 9.675-4.01 8.35-8.431 16.507-12.712 24.776 9.386 4.05 9.332 4.015 14.271-3.258a572.87 572.87 0 0 1 11.374-16.11c1.595-2.177 1.812-3.723-.473-5.687zm-1.793 32.323c.555.51 1.104 1.019 1.659 1.528 7.998-3.25 15.997-6.494 24.685-10.018-4.93-4.623-9.053-8.485-14.15-13.262l-12.194 21.752zm62.98-53.994c-15.74 6.957-20.976 22.685-31.535 32.27 2.276 2.915 4.133 5.285 6.25 7.998 9.937-6.083 19.274-11.662 28.408-17.552 1.37-.883 2.812-3.492 2.474-4.867-1.455-5.871-3.564-11.576-5.596-17.85zm13.073-49.597c-6.38 5.21-12.333 10.937-18.462 16.462-2.312 2.082-1.87 3.217.622 5.169a248.108 248.108 0 0 1 18.07 15.618c5.282 5.025 10.08 10.554 16.318 17.156l27.069-29.377c-12.6-8.314-25.006-16.628-37.6-24.65-1.537-.982-4.845-1.338-6.017-.378zm-.446 65.603c2.064-1.536 3.515-2.618 4.633-3.452l-9.153-10.17c1.704 5.141 2.961 8.922 4.52 13.622zm-101.608-6.489c-1.392 2.19-2.357 4.65-3.555 6.967-3.93 7.593-7.873 15.177-11.915 22.968 4.466 1.992 8.445 3.772 12.433 5.552 4.925-9.567 9.355-18.719 14.37-27.533 1.294-2.276 4.435-3.497 6.728-5.2-1.699-1.407-3.501-2.704-5.083-4.236-4.83-4.683-9.323-4.268-12.978 1.482zM149.49 155.378c-5.43-1.826-10.441-3.727-15.592-5.097-1.406-.37-3.961.36-4.736 1.46-1.92 2.744-3.118 5.989-4.615 9.04 7.512 1.505 14.439 2.893 21.788 4.362 1.181-3.65 2.11-6.53 3.155-9.765zm13.568 27.141c9.058-28.489 16.475-57.618 33.685-82.83 5.25-7.688 4.669-8.594-4.34-12.979-2.248 3.497-4.235 7.247-6.827 10.518-16.326 20.576-24.063 45.185-32.422 69.433-1.785 5.174-3.998 6.26-8.752 5.025-5.94-1.546-11.919-3.001-17.966-3.984-1.87-.306-5.2.482-5.827 1.767-3.33 6.836-6.011 13.983-9.157 21.603 16.025 2.393 31.112 4.641 46.64 6.958 1.6-4.989 3.295-10.248 4.966-15.511zm-28.313 41.003c.293-2.271.654-4.529 1.199-8.305-10.788-.798-20.918-1.541-31.283-2.307l-4.272 20.084c7.958.6 14.785 1.438 21.621 1.55 11.307.194 11.307 0 12.735-11.022zm-9.923 166.855v-23.446a63263.52 63263.52 0 0 1-19.233-2.47c1.956 6.183 3.56 11.59 5.376 16.926 3.19 9.382 3.646 9.63 13.857 8.99zm-6.011-191.532c-9.445-2.519-9.445-2.519-11.883 7.76 9.923 2.483 12.694.595 11.883-7.76zm138.776-162.51c9.833-5.282 19.188-11.46 28.705-17.327l-1.054-2.1c-12.807 2.942-24.217 9.377-35.906 15.105l-.167 1.694c2.857.969 6.61 3.605 8.422 2.627zM235.43 165.89c.806.838 2.96 1.505 3.771 1.027 5.039-2.978 9.874-6.3 15.421-9.927a87897.474 87897.474 0 0 1-16.078-24.64l-15.948 19.309c4.88 5.47 8.737 9.963 12.834 14.23zm-53.175 59.325c-1.568 15.777-2.275 12.343 11.811 14.263 3.538-40.805 10.067-80.082 40.958-111.157-4.461-5.011-9.103-10.225-13.92-15.633-7.76 6.174-12.072 14.16-14.911 22.658-9.833 29.449-20.842 58.632-23.938 89.87zm5.318-141.8c-4.736-3.123-4.768-3.154-8.026.1-16.921 16.912-31.49 35.662-43.752 56.202-.725 1.212-1.18 2.591-1.735 3.84 5.93 2.235 11.397 4.294 17.404 6.56 9.706-23.838 18.728-47.554 36.109-66.702zm-7.611 117.53c2.618-9.248 4.637-18.035 7.593-26.498 7.84-22.437 10.67-47.028 28.187-65.891-3.074-4.074-6.102-8.089-9.274-12.289-13.587 17.102-42.049 86.107-42.747 103.407 5.452.423 10.919.856 16.24 1.27zM135.88 344.191c2.812 25.2 2.812 25.2 8.07 26.073 2.51-20.373 1.285-24.568-8.07-26.073zm15.01 54.008h-16.25v12.203c4.958.92 9.522 1.762 14.236 2.636.74-5.448 1.343-9.905 2.014-14.839zm12.988 75.945 1.22-.663v-15.515c-4.55-.243-8.922-.478-14.802-.788 5.218 6.516 9.4 11.738 13.582 16.966zm-39.827-60.93.883-.42v-15.56c-2.573-.364-4.93-.698-8.67-1.225 2.974 6.566 5.38 11.888 7.787 17.205zm60.74 26.75h-46.906c4.164 4.672 7.147 11.144 10.824 11.567 11.87 1.37 23.996.51 36.082.51v-12.078zm2.758 37.195c12.956.716 25.911 1.428 39.913 2.194-2.046-6.624-3.934-12.59-5.728-18.588-.996-3.326-3.015-4.133-6.476-3.961-13.203.648-26.429.887-39.646 1.315-1.451.045-2.893.311-4.245.46-1.433 16.664-1.433 16.664 14.47 18.359.572.058 1.14.189 1.712.22zm-65.242-136.334c-7.255-1.456-14.583-2.533-21.923-3.74-.825 15.528 2.023 19.232 16.177 21.287 2.641.383 5.313.541 8.62.86 0-5.51.19-10.291-.13-15.037-.08-1.22-1.609-3.14-2.744-3.37zm-4.223-31.648c-7.052-.18-14.113-.095-22.085-.095.739 6.552 1.289 12.604 2.226 18.589.176 1.113 1.803 2.595 2.979 2.843 7.683 1.604 15.425 2.911 25.325 4.714-2.109-9.103-3.754-16.56-5.655-23.951-.235-.91-1.807-2.073-2.79-2.1zm110.63 194.983v-16.047l-53.882-3.24c5.3 6.665 11.054 12.208 16.922 17.624.91.839 2.33 1.582 3.523 1.596 11.05.117 22.095.067 33.437.067zm-84.074-167.927V313.72c-18.778-6.917-14.758 8.706-8.792 20.445 2.988.703 5.331 1.258 8.792 2.069zm20.905 44.522c-6.678-.37-13.249-2.555-19.932-3.11-2.811-.23-6.813.82-8.458 2.8-2.122 2.55-2.433 6.619-4.07 11.743h42.54c.992-10.554.356-10.852-10.08-11.433zM651 335.391c5.633 1.352 10.635 2.55 16.174 3.875.486-2.595 1.036-4.984 1.365-7.399 1.194-8.697 2.316-17.408 3.465-26.114v-9.229c-.932-1.573-1.87-3.15-2.933-4.943-6.088 14.753-12.014 29.124-18.07 43.81zM444.383 230.435c-3.83 1.798-6.746 3.235-9.72 4.546-8.68 3.84-8.905 5.174-3.885 13.632 3.398 5.714 6.43 11.69 9.098 17.777 3.07 7.008 5.453 14.312 8.382 21.383.581 1.401 2.114 2.965 3.515 3.362 5.466 1.55 11.054 2.663 18.62 4.402-1.726-6.034-2.672-10.743-4.425-15.123-2.082-5.205-5.092-10.031-7.291-15.2-4.84-11.383-9.423-22.874-14.294-34.78zm-30.77 36.933c5.89-1.126 11.622-3.055 18.31-4.948-4.06-7.548-7.643-14.213-11.636-21.634l-19.701 7.76c2.956 5.434 5.444 10.423 8.364 15.145 1.014 1.645 3.357 3.925 4.664 3.677zm-19.998 92.817c2.47-3.033 4.65-5.705 7.309-8.968-6.313-.775-11.527-1.42-17.805-2.19l10.496 11.158zm65.612 2.474c-3.425-.56-6.472-.843-9.405-1.591-5.552-1.41-11.018-3.14-16.547-4.642-5.11-1.383-7.76 1.082-8.08 5.949-.347 5.335-.307 10.702-.23 16.051.13 9.418.527 9.792 9.855 11.104 5.53.78 6.773-.356 6.746-6.097-.018-4.502-.004-9.004-.004-13.726 14.114 4.186 15.862.946 17.665-7.048zm4.294-120.066c-1.095.419-2.623 2.374-2.393 3.163 1.339 4.596 3.137 9.053 5.025 14.213l45.991-18.449c-1.708-4.993-3.353-9.815-5.169-15.137-15.132 5.61-29.327 10.82-43.454 16.21zM198.059 363.019c8.44-.441 15.123-.793 22.923-1.198-5.029-4.76-8.683-8.215-12.477-11.802l-10.446 13zm320.33-103.375c-1.802-4.38-3.266-8.9-4.803-13.13-15.046 6.362-29.633 12.531-44.784 18.94 4.597 10.134 9.22 20.327 13.848 30.516.23.505.428 1.36.77 1.433 7.161 1.428 14.088 5.53 21.68 2.56 6.593-2.578 12.925-5.859 19.599-8.189 5.164-1.802 5.871-4.326 3.672-9.003-3.569-7.598-6.782-15.362-9.981-23.127zm-69.203-39.632c10.793-4.385 21.419-8.698 32.018-13.006-4.2-12.068-9.725-23.63-13.78-35.753-11.834 4.538-23.627 9.067-34.375 16.268a377621.23 377621.23 0 0 1 16.137 32.49zm85.746 82.916c6.918-3.736 14.984-5.336 23.073-8.062-1.23-3.452-2.812-7.882-4.227-11.852l-43.112 19.706c8.558 2.83 15.98 4.682 24.266.208zM236.03 391.332c-1.266-3.92-2.163-7.237-3.443-10.405-.523-1.293-1.717-3.032-2.852-3.244-6.863-1.285-13.794-2.186-21.004-3.254.333 6.377.604 11.487.888 16.903h26.411zm26.51 20.504c.69 1.055 2.48 2.415 3.344 2.168 6.886-1.96 13.668-4.281 20.527-6.503l-8.783-16.164-24.78 4.777c3.397 5.57 6.43 10.72 9.693 15.722zm48.538 6.322c13.046-5.52 26.294-10.567 39.493-15.727 11.185-4.37 22.424-8.611 33.595-12.892-3.19-9.797-3.497-9.955-11.937-6.26-2.632 1.154-5.264 2.34-7.8 3.687-18.553 9.85-37.854 17.66-58.493 21.977-3.1.649-6.043 2.041-9.093 3.096 4.52 10.58 4.393 10.283 14.235 6.12zm-2.194-41.066c-3.763-14.514-7.229-28.42-11.109-42.206-.504-1.789-2.933-3.614-4.862-4.267-2.397-.811-5.2-.428-8.607-.595 3.619 17.223 7.098 33.77 10.712 50.975l13.866-3.907zm95.051 34.676c1.442-8.124 2.154-15.452 4.123-22.418 2.704-9.572 6.507-18.832 9.504-28.332.65-2.045.74-5.227-.423-6.669-2.064-2.573-10.054-1.42-12.47 1.248-6.164 6.814-12.27 13.681-18.637 20.792 5.083 11.721 7.237 25.267 17.903 35.38zm-109.652-7.097c7.76-1.956 15.425-4.281 23.933-6.719-1.929-4.795-3.425-9.148-5.466-13.226-.63-1.266-3.033-2.825-4.105-2.505-8.378 2.492-16.624 5.412-25.447 8.377 2.465 4.303 4.573 8.373 7.102 12.162.725 1.09 2.847 2.2 3.983 1.911zM422.68 286.709c6.043 1.465 12.316 1.979 19.517 3.015-2.532-6.692-4.583-12.383-6.903-17.962-.37-.879-2.136-1.929-2.988-1.735-5.827 1.352-11.581 3.015-17.237 4.542.983 2.686 1.438 4.998 2.614 6.845 1.302 2.055 2.997 4.809 4.997 5.295zM268.934 328.05c-.36-.04-.743.108-2.523.392.045 19.63 2.005 38.813 7.07 57.92 2.744-.55 4.817-.906 6.859-1.379 9.485-2.208 9.634-2.253 7.719-11.685-2.334-11.468-5.11-22.847-7.418-34.32-1.95-9.707-1.78-9.747-11.707-10.928zm153.11-98.57c.988 1.234 3.597 2.406 4.89 1.95 4.818-1.694 9.396-4.073 14.114-6.218-2.767-5.205-5.259-9.91-7.976-15.029-6.097 3.146-11.78 6.075-17.503 9.026 2.37 3.862 4.12 7.31 6.476 10.27zm-43.237-24.754c3.069 6.647 5.786 12.974 8.882 19.116 3.186 6.318 6.741 12.45 10.333 19.026 6.633-2.578 12.595-4.894 18.926-7.35a96642.093 96642.093 0 0 1-23.423-37.632c-5.093 2.37-9.58 4.452-14.718 6.84zm-2.393 148.681a46521.59 46521.59 0 0 1 6.534 17.232c2.578-2.248 4.71-4.11 7.499-6.543-4.516-4.308-8.477-8.084-12.433-11.86-.532.392-1.068.78-1.6 1.171zm250.02-158.518c13.342 13.019 25.915 25.28 38.487 37.542.253-22.545-10.067-44.716-23.004-52.255-5.26 4.993-10.32 9.801-15.484 14.713zM182.795 351.19h-13.492v19.278c12.055 1.185 16.12-4.74 13.492-19.278zm-11.942-33.905v24.586c4.322.523 8.224 1 12.064 1.465 2.636-19.053-1.6-28.205-12.064-26.051zm-31.68 116.911h71.115c-1.15-3.262-2.208-6.286-3.254-9.26-5.074.27-9.963.63-14.857.775-15.11.437-30.215.798-45.324 1.172-4.344.108-7.3 1.699-7.68 7.313zm19.653-35.951c-1.104.045-2.848 1.42-3.087 2.456-.87 3.772-1.221 7.665-1.888 12.338 4.425 0 7.665-.031 10.91.005 11.094.117 12.933-1.861 11.887-14.912-6.043 0-11.941-.13-17.822.113zm203.775-51.85c-9.598-2.987-19.246-5.804-30.025-9.008 3.443 18.107 6.647 34.978 9.94 52.323l34.582-15.497c-4.132-8.54-8.17-16.953-12.298-25.326-.482-.977-1.284-2.208-2.199-2.492zM125.48 199.048l-2.798 8.945c16.953 2.213 33.378 4.556 49.862 6.417 6.674.753 7.305-.464 6.003-7.287-17.778-2.703-35.438-5.394-53.067-8.075zm66.13 213.315c14.668-.189 29.35-.09 44.013.37 4.457.14 5.904-1.924 6.377-5.48.644-4.844-2.411-11.306-5.453-11.329-16.998-.121-33.995-.058-51.556-.058 0 3.61.09 6.998-.023 10.373-.153 4.7 1.906 6.187 6.642 6.124zm-38.686-98.76c-.307 2.343-.843 4.804-.906 7.287-.144 5.367-.045 10.747-.045 17.615l11.653 1.604c0-6.21-.022-10.734.005-15.254.076-12.293-.564-13.005-10.707-11.252zm419.852 3.411c.226.793.938 1.888 1.618 2.05 8.44 2.038 16.917 3.926 25.948 5.98v-21.346c-10.991-1.888-21.392-3.668-32.658-5.597 1.713 6.426 3.344 12.686 5.092 18.913zm-421.89 53.432h10.902v-20.977c-3.493-.609-6.71-1.163-10.901-1.893v22.87zm25.94-149.984-35.303-4.051-2.627 17.917c13.045.811 25.194 1.568 37.93 2.361v-16.227zm398.366-53.9c.478 6.949 1.667 13.87 1.816 20.815.162 7.498 5.507 10.076 11.054 13.699 2.654-7.868 5.196-15.213 7.543-22.622.266-.838-.26-2.388-.955-2.987-5.565-4.845-11.261-9.536-17.665-14.903-.928 2.956-1.897 4.516-1.793 5.998zm30.12 50.092c-8.382-3.69-16.65-7.624-26.48-12.158 9.005 23.24 11.645 48.403 29.094 67.572 1.149-2.356 1.96-4.605 1.699-6.719-1.785-14.316-2.172-28.61-.082-42.918.505-3.424-1.532-4.587-4.231-5.777zm-2.717 74.44c.108-3.794 1.469-8.296-3.551-10.315-7.12-2.861-14.15-6.092-21.49-8.228-8.063-2.348-11.672.928-11.681 9.36 0 .959.117 1.937-.023 2.874-.577 3.898.942 6.129 4.88 6.976 10.027 2.172 20.027 4.493 30.166 6.782.734-3.069 1.636-5.25 1.699-7.449zm-18.922-133.95c13.334 11.915 26.006 23.239 38.542 34.437 5.574-5.714 10.626-10.887 16.29-16.691-17.137-8.089-33.459-19.409-54.832-17.746zm8.53-11.144v-21.18h-8.201c-2.276 14.308.306 20.85 8.201 21.18zM444.51 108.039c-.334 1.825.234 4.867 1.491 5.714 3.07 2.064 5.647 6.948 10.297 4.254 5.38-3.119 10.329-6.99 13.875-9.437-2.199-11.053-4.11-20.679-6.15-30.935-3.624 2.266-7.927 4.686-11.897 7.57-1.528 1.109-2.785 3.128-3.317 4.975-1.69 5.885-3.195 11.843-4.3 17.859zm37.344 2.658-21.423 12.88c9.94 3.632 18.056 6.592 26.578 9.706-1.79-7.827-3.344-14.64-5.155-22.586zm-6.724-62.637c-10.99 8.868-21.4 16.944-24.956 31.13 16.421-3.984 21.27-16.467 24.956-31.13zm-43.666 130.98c7.679-17.336 10.653-36.537 19.715-53.278a2116.675 2116.675 0 0 1-8.242-3.38c-7.354 11.04-15.515 23.23-23.54 35.51-.546.834-.474 2.56.017 3.51 3.48 6.778 7.147 13.465 10.085 18.94.604-.274 1.204-.545 1.807-.82.036-.157.086-.32.158-.482zm6.57-2.568c18.665-8.477 37.02-16.813 56.018-25.439-2.064-3.636-3.073-8.35-5.691-9.548-10.658-4.88-21.509-9.328-32.4-13.772-8.405 15.21-11.663 32.612-17.927 48.759zm-2.338-112.699c-3.416-.184-4.737 1.24-4.935 4.628-.432 7.467-1.068 14.934-1.83 22.379-.977 9.571.668 12.536 10.95 17.281 2.506-14.758 4.953-29.183 7.513-44.252-4.83 0-8.274.145-11.698-.036zM186.946 379.77c-.31 3.407-.996 6.787-1.626 10.91 5.15.405 9.729.996 14.303.996 1.586 0 4.555-1.51 4.528-2.244-.184-4.903-.329-10.05-2.059-14.497-.487-1.248-6.264-.595-9.612-.523-3.344.068-5.21 1.843-5.534 5.358zm335.725 32.986c10.536-8.368 20.855-17.011 32.12-26.316l-62.466-17.061-1.234 2.014c8.868 13.627 17.669 27.3 26.74 40.791.622.924 3.898 1.32 4.84.572zM389.014 150.741c-1.997 3.785-.42 7.859 2.897 8.255 6.75.816 13.708-.058 20.58-.324.37-.014.762-.798 1.05-1.28 1.853-3.073 3.682-6.165 5.57-9.337a45540.77 45540.77 0 0 1-25-6.422c-1.573 2.794-3.412 5.908-5.097 9.108zm-21.82 26.145c-2.627 2.898-2.686 4.813-.5 7.652 3.51 4.547 6.813 9.251 10.527 14.33 3.87-1.82 8.305-3.912 13.257-6.241-2.676-5.39-4.776-10.31-7.462-14.885-4.516-7.683-9.702-7.602-15.822-.856zm-35.843-50.407c.843 1.64 1.685 3.285 2.528 4.934 10.509-4.763 20.76-9.41 32.346-14.664-1.32-2.42-2.636-4.821-3.947-7.223-10.076 6.038-20.463 11.608-30.927 16.953zm-2.068-31.612c-.068-.1-.109-.194-.158-.293-3.596 2.361-7.107 4.668-10.572 6.949 3.52 6.863 6.985 13.622 10.455 20.382a642.028 642.028 0 0 0 15.488-8.157c-4.754-6.543-10.626-12.194-15.213-18.881zm4.443-2.596c4.6 6.715 10.504 12.384 15.272 18.967 3.632-2.032 7.25-4.091 10.815-6.232L347.51 82.492c-4.935 3.245-9.63 6.327-14.177 9.32.14.13.27.283.392.46zm37.582 43.427c-4.28 1.096-8.562 3.385-12.374 5.345 1.01 4.502 1.983 9.013 3.096 13.492 2.176-.554 4.335-1.1 6.498-1.636 6.07-1.514 7.278-3.474 5.372-9.657-.78-2.537-1.708-5.034-2.592-7.544zm-13.555.235c3.754-1.812 7.8-3.862 11.97-5.043a49.16 49.16 0 0 1-.956-3.64c-.793-3.642-2.078-3.908-4.984-2.646-2.69 1.163-5.38 2.32-8.089 3.483.072.149.135.307.185.478a207.395 207.395 0 0 1 1.874 7.368zm-17.01 14.974 3.609 8.152c4.416-1.126 8.607-2.208 12.694-3.253-1.014-4.097-1.915-8.215-2.835-12.334-4.546 2.37-9.03 4.871-13.469 7.435zm12.283-12.617a212.486 212.486 0 0 0-2.06-8.175c-5.307 2.267-10.715 4.57-16.343 6.976l4.028 9.09c4.732-2.732 9.509-5.4 14.375-7.891zM568.297 267.98c1.857 1.302 4.52 1.456 6.836 2.11.054-.204.108-.406.167-.61.955-.076 1.906-.166 2.862-.225 3.73-.243 7.714-.288 7.548-5.592-.185-5.7-3.326-8.368-9.063-7.584-2.424.333-4.907 1.086-7.066 2.217-1.852.973-4.42 2.645-4.578 4.218-.176 1.748 1.631 4.29 3.294 5.466zm-7.16 35.992c-.667-1.568-3.168-3.803-4.24-3.515-7.666 2.06-15.174 4.687-22.735 7.138l.433 1.442c9.756 2.46 19.512 4.921 30.458 7.688-1.487-5.038-2.348-9.044-3.916-12.753zm-51.634-120.688c-9.098 4.047-18.67 7.102-26.965 12.712a246.966 246.966 0 0 1 3.424 9.08c9.49-3.857 18.972-7.705 28.548-11.594-1.708-3.479-3.366-6.859-5.007-10.198zm-2.253-4.592c-3.393-6.908-6.723-13.685-10.161-20.697-7.995 4.65-16.408 8.125-24.87 11.41 2.442 7.372 5.434 14.537 8.363 21.73 8.255-5.418 17.696-8.428 26.668-12.443zm66.788 48.682c-7.818 1.775-15.695 3.294-23.527 5.006-2.1.46-4.128 1.244-6.359 1.929 3.407 5.326 6.805 9.873 9.342 14.862 1.929 3.799 4.632 4.006 7.985 3.384 6.935-1.275 13.857-2.632 22.604-4.303-1.424-5.732-3.48-11.379-4.065-17.174-.496-4.876-2.568-4.48-5.98-3.704zm-121.95-1.91 6.246 13.04c14.128-5.592 28.002-11.117 41.904-16.578 7.936-3.114 10.816-1.988 13.533 5.898 3.686 10.698 6.705 21.635 10.59 32.252 3.316 9.071 7.449 17.836 11.41 27.187 5.592-2.97 10.472-5.561 16.173-8.585-11.41-27.038-22.748-53.89-33.92-80.36-22.837 9.404-44.156 18.182-65.935 27.145zm-40.349-11.077c6.367-3.119 12.343-6.048 18.976-9.292-1.91-3.795-3.736-7.098-5.25-10.536-1.51-3.425-2.496-7.093-4.105-10.464-1.514-3.177-3.114-6.493-5.426-9.08-8.413-9.414-16.596-10.468-28.975-4.015 8.174 14.312 16.34 28.606 24.78 43.387zM265.424 528.964c-.789-1.519-1.29-2.492-1.794-3.46-5.01-9.595-9.94-19.23-15.11-28.738-.766-1.406-2.654-2.199-5.07-4.1 1.894 14.131 3.556 26.573 5.368 40.101l16.606-3.803zm-53.369-89.883c-7.228.37-13.987.712-20.89 1.064v13.374c8.845-.405 17.123-.78 26.154-1.19-1.992-5.015-3.646-9.17-5.264-13.248zm-20.336-77.648 13.469-16.065c-4.16-5.155-7.81-9.675-11.6-14.375-4.925 7.039-6.15 26.177-1.87 30.44zm47.144 127.745 8.022-1.429a2.024 2.024 0 0 0 1.446-2.915l-27.029-52.783a2.027 2.027 0 0 1 .744-2.65l4.966-3.041a2.027 2.027 0 0 0 .523-2.992 2.03 2.03 0 0 0-1.97-.721l-10.459 2.05a2.027 2.027 0 0 0-1.5 2.708l23.009 60.498a2.03 2.03 0 0 0 2.248 1.275zm26.827-286.85c3.24 4.584 6.056 8.567 8.958 12.668 3.93-2.154 7.233-3.961 10.96-6.007-2.317-4.759-4.534-9.314-7.035-14.447-4.596 2.776-8.575 5.182-12.883 7.787zM224.268 186.8c8.066 6.651 14.933 12.158 21.603 17.89 2.79 2.402 4.862 2.005 7.453-.27 6.701-5.895 13.587-11.582 21.004-17.863-4.808-7.084-10.098-14.871-15.515-22.847-11.734 7.84-22.883 15.294-34.545 23.09zm95.335-144.085c-1.036-1.266-4.75-1.933-6.106-1.081-9.418 5.894-18.543 12.261-28.214 18.782 1.406 2.92 2.032 7.111 4.245 8.274 7.02 3.681 10.22 10.333 14.69 16.07 3.362 4.312 7.13 8.304 10.825 12.563 10.13-6.408 19.814-12.537 29.408-18.607-2.983-5.123-5.286-9.792-8.238-14-5.277-7.522-10.783-14.903-16.61-22zM201.619 241.214c5.484 1.05 10.82 2.073 14.596 2.794 4.294-14.551 8.382-28.237 12.289-41.977.32-1.126-.176-3.095-1.023-3.835-5.602-4.889-11.401-9.544-17.611-14.663-5.354 19.22-9.517 37.812-8.251 57.68zm9.486-62.638c3.451 1.861 6.259 3.375 7.723 4.16 4.556-3.989 8.707-7.62 14.858-13.006l-14.29-12.478c-3.082 7.922-5.678 14.6-8.291 21.324zm10.062 176.535 1.325-.933c0-8.188-.031-16.376.014-24.564.022-3.52-1.659-4.817-5.047-4.29-5.58.879-11.167 1.703-17.94 2.73 7.566 9.455 14.61 18.256 21.648 27.057zm166.242 78.427c-11.175 4.836-21.702 9.387-32.45 14.038 3.547 7.593 6.499 13.91 9.58 20.508l29.468-17.913c-2.064-5.205-4.16-10.481-6.598-16.633zM233.307 323.143c-1.65.315-3.979 2.92-4.046 4.578-.266 6.273-.248 12.654.63 18.86 1.213 8.53 1.591 8.476 11.235 6.006-.627-8.45-1.483-16.615-1.74-24.798-.144-4.588-3.114-5.214-6.079-4.646zm29.197 65.103c1.64-.343 3.258-.785 4.87-1.177-2.009-10.026-3.956-19.72-5.997-29.885-9.49.847-18.967 1.69-30.183 2.685 2.834 6.814 4.605 13.168 7.904 18.593 7.976 13.11 8.264 12.938 23.406 9.784zm-10.405 55.576c5.177-2.23 9.62-4.146 14.194-6.115-10.855-15.074-14.447-16.836-24.352-11.937 3.285 5.835 6.557 11.648 10.158 18.052zm-24.15-14.082c-4.488 3.902-.054 7.255 1.388 10.54 4.948 11.275 5.565 11.41 16.484 5.94.28-.14.401-.591.77-1.168-3.465-6.165-6.997-12.446-10.963-19.499-2.794 1.478-5.62 2.393-7.679 4.187zm18.66-76.914c4.886-.478 9.536-.933 14.44-1.41-.425-8.342-.84-16.413-1.254-24.582-4.93-.667-9.4-1.267-14.492-1.956.45 9.693.87 18.561 1.307 27.948zm23.587-126.69 41.778 36.861c.46-.37.924-.739 1.388-1.108-8.724-15.754-17.449-31.508-26.745-48.285-5.354 4.087-10.563 8.057-16.421 12.532zm-15.304-14.209c4.272 3.984 8.229 7.67 12.366 11.527l4.366-5.164c-3.524-4.209-6.642-7.926-9.927-11.847-2.393 1.929-4.42 3.565-6.805 5.484zm16.908 249.46c8.224-3.654 8.238-3.807 3.398-11.238-1.221-1.875-2.452-3.75-3.592-5.489-10.662 4.263-20.724 8.287-31.22 12.487l9.28 13.843c7.772-3.366 14.978-6.426 22.134-9.603zm-48.745-215.631c23.771 5.223 46.681 10.26 69.587 15.294.198-.576.396-1.153.6-1.734-20.991-13.267-46.213-17.345-67.92-30.864-.811 6.196-1.514 11.572-2.267 17.304zm6.467-31.157c-2.785 7.68-2.97 8.684 4.484 12.06 14.614 6.628 29.615 12.41 44.459 18.543.297-.437.6-.874.897-1.312-14.943-13.343-29.882-26.681-45.55-40.674-1.753 4.647-3.06 8.004-4.29 11.383zm216.424 210.625c-.392-3.397-.572-6.84-1.22-10.188-2.02-10.41-6.922-17.593-19.026-16.777-3.623.247-5.39-1.668-5.399-5.624-.014-3.907-.838-7.81-1.307-11.712-.581-.072-1.158-.14-1.74-.212-2.212 11.419-4.424 22.838-6.642 34.266 8.842 3.375 16.818 6.723 25.015 9.405 3.19 1.045 6.868.603 10.32.842zm66.937-7.9c-5.16-7.732-10.355-15.519-15.677-23.5-5.877 4.056-11.69 8.071-17.512 12.09 7.098 17.927 22.257 23.271 33.19 11.41zm-56.559-15.771c7.485-.023 8.891-2.375 5.602-9.193-1.663-3.457-3.213-6.967-4.74-10.482-2.19-5.029-5.864-7.287-9.807-5.39-4.389 2.11-3.253 5.859-2.063 9.45.9 2.731 2.365 5.484 2.41 8.247.109 6.065 3.57 7.449 8.598 7.368zm-5.2 29.034c7.76-5.218 14.848-9.977 21.96-14.754-6.45-7.606-6.45-7.408-17.994-7.507-4.371-.04-5.967 1.793-5.687 5.673.347 4.903.996 9.788 1.721 16.588zm43.45-41.328c-1.694-3.09-3.127-5.79-4.646-8.44-1.523-2.663-3.19-5.24-4.691-7.913-2.925-5.2-9.752-8.265-15.358-6.471-3.794 1.208-7.417 2.934-12.05 4.8 5.886 10.008 11.465 19.498 17.494 29.754a33780.42 33780.42 0 0 1 19.251-11.73zm-80.78 53.463c-3.173-5.601-6.093-10.756-9.355-16.506-4.146 2.046-7.706 3.798-11.329 5.588l6.129 17.128 14.555-6.21zm-83.1-12.424c-1.948-4.736-3.656-8.895-5.503-13.388l-12.244 5.39c-14.05 6.173-11.49 7.3-19.787-4.908-.838-1.234-3.145-2.59-4.34-2.275-6.628 1.766-13.126 4.033-20.58 6.421l18.111 32.81c15.105-8.192 29.949-16.24 44.342-24.05zm70.825-9.544c-5.065-9.562-9.87-18.629-14.502-27.38-19.561 7.286-38.353 14.28-58.514 21.783 6.597 10.085 12.59 19.247 18.31 27.984 18.434-7.543 36.302-14.857 54.706-22.387zm-33.05 64.639c-6.155-9.716-12.117-19.12-18.421-29.07-7.94 17.168-16.52 33.855-19.08 53.309l37.501-24.24zm-42.327-149.42c-6.836-1.6-13.776-2.759-22.559-4.426 6.877 22.77 13.213 43.76 19.702 65.243l14.6-4.773c-3.078-17.989-5.966-35.167-9.04-52.318-.252-1.406-1.545-3.456-2.703-3.727zm-4.65 131.052c7.53-4.002 14.172-7.535 22.256-11.834-3.344 7.562-6.124 13.844-9.211 20.833-4.3-2.965-8.147-5.62-13.046-9" fill="#545454"/></g></svg>