<svg xmlns="http://www.w3.org/2000/svg" width="1024" height="768" viewBox="0 0 768 576"><clipPath id="a"><path transform="scale(.24)" d="M0 0h3200v2431.25H0z" fill-rule="evenodd"/></clipPath><g clip-path="url(#a)" fill="#fff"><path d="M0 0h768v583.5H0z"/><path d="M0 0h768v576H0z"/></g><clipPath id="b"><path transform="scale(.24)" d="M0 0h3200v2400H0z" fill-rule="evenodd"/></clipPath><g clip-path="url(#b)"><path d="M0 0h768v576H0z" fill="#fff"/></g><clipPath id="c"><path transform="scale(.24)" d="M289.508 65.829h2621.875v2268.75H289.508z" fill-rule="evenodd"/></clipPath><g clip-path="url(#c)"><path transform="matrix(.2823 0 0 -.28217 -216.207 887.863)" stroke-width="50" stroke-linecap="round" stroke-linejoin="round" fill="none" stroke="#445eb4" d="M1036.7 2654.9h239.8M2099.8 2654.9h144.1M1705.4 2788H2318M3071.2 2788h144.1M3106.3 2991.1h-612.6M2152.2 2932.7h-144.1M2243.9 3065.8h-612.6M1180.8 3065.8h-144.1"/><path transform="matrix(.2823 0 0 -.28217 -216.207 887.863)" stroke-width="50" stroke-miterlimit="10" fill="none" stroke="#445eb4" d="M1063.2 1186.2h2120.2"/><path d="M112.73 553.152c-.254 0-.564-.028-.846-.085-3.106-.451-5.223-3.358-4.743-6.462l62.812-407.963c.48-3.075 3.36-5.22 6.465-4.712a5.653 5.653 0 0 1 4.742 6.462l-62.812 407.963c-.423 2.793-2.85 4.797-5.618 4.797M290.665 553.152a5.644 5.644 0 0 1-5.59-4.797l-62.811-407.963a5.653 5.653 0 0 1 4.742-6.462c3.077-.508 5.985 1.637 6.465 4.712l62.812 407.963c.48 3.104-1.637 6.01-4.743 6.462a4.6 4.6 0 0 1-.875.085" fill="#545454"/><path d="M184.096 133.845h35.316L201.74 90.222l-17.644 43.623zm43.757 11.344h-52.17a5.592 5.592 0 0 1-4.685-2.512c-1.073-1.552-1.27-3.527-.565-5.276l26.056-64.448c.876-2.145 2.936-3.556 5.251-3.556a5.645 5.645 0 0 1 5.251 3.556l25.83 63.799a5.75 5.75 0 0 1 .706 2.765 5.673 5.673 0 0 1-5.674 5.672M142.062 241.578h119.357L201.74 213.39l-59.678 28.19zm144.68 11.344H116.823a5.656 5.656 0 0 1-5.533-4.43 5.657 5.657 0 0 1 3.105-6.378l84.916-40.124a5.631 5.631 0 0 1 4.856 0l84.55 39.955a5.622 5.622 0 0 1 3.67 5.305c0 3.132-2.513 5.672-5.647 5.672M142.062 318.47h119.357l-59.679-28.189-59.678 28.189zm144.68 11.343H116.823c-2.682 0-4.969-1.834-5.533-4.43a5.62 5.62 0 0 1 3.105-6.349l84.916-40.153a5.631 5.631 0 0 1 4.856 0l84.55 39.956a5.65 5.65 0 0 1 3.67 5.305c0 3.132-2.513 5.671-5.647 5.671M142.062 395.362h119.357l-59.679-28.19-59.678 28.19zm144.68 11.343H116.823c-2.682 0-4.969-1.834-5.533-4.43-.593-2.568.706-5.22 3.105-6.349l84.916-40.153a5.835 5.835 0 0 1 4.856 0l84.55 39.956a5.65 5.65 0 0 1 3.67 5.304c0 3.132-2.513 5.672-5.647 5.672" fill="#545454"/><path d="M286.685 274.028a5.673 5.673 0 0 1-5.675-5.672V247.25a5.673 5.673 0 0 1 5.675-5.672 5.673 5.673 0 0 1 5.674 5.672v21.106a5.673 5.673 0 0 1-5.674 5.672M116.824 274.028a5.673 5.673 0 0 1-5.674-5.672V247.25a5.673 5.673 0 0 1 5.674-5.672c3.105 0 5.674 2.54 5.674 5.672v21.106c0 3.133-2.569 5.672-5.674 5.672M286.685 350.92a5.673 5.673 0 0 1-5.675-5.672v-21.106a5.673 5.673 0 0 1 5.675-5.672 5.673 5.673 0 0 1 5.674 5.672v21.106a5.673 5.673 0 0 1-5.674 5.672M116.824 350.92a5.673 5.673 0 0 1-5.674-5.672v-21.106a5.673 5.673 0 0 1 5.674-5.672c3.105 0 5.674 2.54 5.674 5.672v21.106c0 3.132-2.569 5.672-5.674 5.672M286.685 427.811a5.673 5.673 0 0 1-5.675-5.671v-21.107a5.673 5.673 0 0 1 5.675-5.671 5.673 5.673 0 0 1 5.674 5.671v21.107a5.673 5.673 0 0 1-5.674 5.671M116.824 427.811a5.673 5.673 0 0 1-5.674-5.671v-21.107a5.673 5.673 0 0 1 5.674-5.671c3.105 0 5.674 2.54 5.674 5.671v21.107c0 3.132-2.569 5.671-5.674 5.671M475.657 553.152a4.83 4.83 0 0 1-.875-.085c-3.077-.451-5.222-3.358-4.742-6.462l62.812-407.963c.48-3.075 3.36-5.22 6.464-4.712a5.653 5.653 0 0 1 4.743 6.462l-62.812 407.963c-.423 2.793-2.851 4.797-5.59 4.797M653.592 553.152c-2.767 0-5.194-2.004-5.618-4.797l-62.812-407.963a5.653 5.653 0 0 1 4.743-6.462c3.077-.508 5.985 1.637 6.464 4.712l62.813 407.963c.48 3.104-1.638 6.01-4.743 6.462a4.312 4.312 0 0 1-.847.085" fill="#545454"/><path d="M546.995 133.845h35.316l-17.644-43.623-17.672 43.623zm43.785 11.344h-52.169a5.641 5.641 0 0 1-4.715-2.512 5.66 5.66 0 0 1-.564-5.276l26.056-64.448a5.712 5.712 0 0 1 5.28-3.556c2.314 0 4.375 1.411 5.25 3.556l25.802 63.799a5.75 5.75 0 0 1 .706 2.765c0 3.132-2.54 5.672-5.646 5.672M504.988 241.578h119.33l-59.68-28.189-59.65 28.19zm144.652 11.344H479.723c-2.654 0-4.94-1.863-5.534-4.43-.564-2.596.706-5.249 3.106-6.378l84.916-40.124a5.631 5.631 0 0 1 4.856 0l84.549 39.955a5.622 5.622 0 0 1 3.67 5.305c0 3.132-2.513 5.672-5.646 5.672M504.988 318.47h119.33l-59.68-28.189-59.65 28.189zm144.652 11.343H479.723a5.674 5.674 0 0 1-5.534-4.43c-.564-2.596.706-5.22 3.106-6.349l84.916-40.153a5.631 5.631 0 0 1 4.856 0l84.549 39.956a5.65 5.65 0 0 1 3.67 5.305c0 3.132-2.513 5.671-5.646 5.671M504.988 395.362h119.33l-59.68-28.19-59.65 28.19zm144.652 11.343H479.723a5.674 5.674 0 0 1-5.534-4.43c-.564-2.568.706-5.22 3.106-6.349l84.916-40.153a5.835 5.835 0 0 1 4.856 0l84.549 39.956a5.65 5.65 0 0 1 3.67 5.304c0 3.132-2.513 5.672-5.646 5.672" fill="#545454"/><path d="M649.583 274.028a5.673 5.673 0 0 1-5.674-5.672V247.25a5.673 5.673 0 0 1 5.674-5.672 5.673 5.673 0 0 1 5.675 5.672v21.106a5.673 5.673 0 0 1-5.675 5.672M479.722 274.028a5.673 5.673 0 0 1-5.674-5.672V247.25a5.673 5.673 0 0 1 5.674-5.672 5.673 5.673 0 0 1 5.675 5.672v21.106a5.673 5.673 0 0 1-5.675 5.672M649.583 350.92a5.673 5.673 0 0 1-5.674-5.672v-21.106a5.673 5.673 0 0 1 5.674-5.672 5.673 5.673 0 0 1 5.675 5.672v21.106a5.673 5.673 0 0 1-5.675 5.672M479.722 350.92a5.673 5.673 0 0 1-5.674-5.672v-21.106a5.673 5.673 0 0 1 5.674-5.672 5.673 5.673 0 0 1 5.675 5.672v21.106a5.673 5.673 0 0 1-5.675 5.672M649.583 427.811a5.673 5.673 0 0 1-5.674-5.671v-21.107a5.673 5.673 0 0 1 5.674-5.671 5.673 5.673 0 0 1 5.675 5.671v21.107a5.673 5.673 0 0 1-5.675 5.671M479.722 427.811a5.673 5.673 0 0 1-5.674-5.671v-21.107a5.673 5.673 0 0 1 5.674-5.671 5.673 5.673 0 0 1 5.675 5.671v21.107a5.673 5.673 0 0 1-5.675 5.671" fill="#545454"/></g></svg>